<svg width="29.25" height="28.5" viewBox="0 0 39 38" fill="none" xmlns="http://www.w3.org/2000/svg">
<path fill-rule="evenodd" clip-rule="evenodd" d="M31.5702 4.74036L31.5702 18.7292L31.5717 18.9002L31.5715 19.0544L31.5699 19.2087L31.5667 19.3627L31.562 19.5167L31.5557 19.6705L31.548 19.8242L31.5388 19.9777L31.528 20.1311L31.5158 20.2842L31.502 20.4371L31.4868 20.5898L31.47 20.7422L31.4518 20.8944L31.4321 21.0463L31.4109 21.1979L31.3883 21.3492L31.3641 21.5002L31.3385 21.6508L31.3114 21.8011L31.2829 21.951L31.2529 22.1006L31.2215 22.2497L31.1886 22.3985L31.1542 22.5468L31.1184 22.6947L31.0812 22.8421L31.0426 22.989L31.0025 23.1355L30.9611 23.2815L30.9182 23.427L30.8739 23.5719L30.8282 23.7163L30.7811 23.8602L30.7326 24.0034L30.6828 24.1461L30.6316 24.2883L30.579 24.4297L30.525 24.5706L30.4697 24.7109L30.4131 24.8505L30.3551 24.9894L30.2958 25.1276L30.2351 25.2652L30.1732 25.4021L30.1099 25.5383L30.0454 25.6735L29.9794 25.8084L29.9124 25.9422L29.8439 26.0754L29.7743 26.2077L29.7033 26.3394L29.6311 26.4701L29.5576 26.6002L29.4831 26.7291L29.407 26.8576L29.33 26.9849L29.2517 27.1115L29.1721 27.2374L29.0915 27.3621L29.0096 27.4859L28.9265 27.609L28.8423 27.7311L28.757 27.8522L28.6705 27.9724L28.5829 28.0916L28.4941 28.2099L28.4043 28.3272L28.3132 28.4436L28.2213 28.5588L28.1282 28.6731L28.034 28.7864L27.9388 28.8986L27.8425 29.0099L27.7452 29.12L27.6467 29.2292L27.5475 29.3371L27.4471 29.4441L27.3458 29.5498L27.2434 29.6546L27.1401 29.7583L27.036 29.8607L26.9306 29.9623L26.8246 30.0624L26.7176 30.1615L26.6096 30.2595L26.5008 30.3563L26.391 30.452L26.2805 30.5463L26.169 30.6396L26.0567 30.7317L25.9435 30.8226L25.8296 30.9122L25.7149 31.0006L25.5992 31.0878L25.4827 31.1739L25.3658 31.2585L25.2479 31.3419L25.1291 31.4242L25.0099 31.5051L24.8897 31.5848L24.7689 31.6633L24.6474 31.7404L24.5252 31.8162L24.4024 31.8907L24.2788 31.9641L24.1548 32.0359L24.0298 32.1066L23.9047 32.1758L23.7785 32.2439L23.6518 32.3106L23.5248 32.3758L23.3972 32.4397L23.2687 32.5025L23.14 32.5637L23.0107 32.6236L22.8808 32.6823L22.7504 32.7395L22.6195 32.7954L22.4883 32.8498L22.3567 32.9029L22.2243 32.9547L22.0919 33.0049L21.9587 33.054L21.8253 33.1015L21.6917 33.1477L21.5574 33.1925L21.423 33.2358L21.2879 33.2779L21.153 33.3184L21.0172 33.3576L20.8817 33.3953L20.7454 33.4317L20.6091 33.4667L20.4722 33.5003L20.3356 33.5323L20.1985 33.563L20.0611 33.5923L19.9236 33.6202L19.7861 33.6466L19.6481 33.6716L19.5099 33.6952L19.372 33.7173L19.2335 33.7381L19.0951 33.7574L18.9568 33.7753L18.8179 33.7918L18.6795 33.8068L18.5405 33.8204L18.4018 33.8326L18.2632 33.8434L18.1241 33.8527L17.9853 33.8606L17.8465 33.8671L17.7077 33.8722L17.5689 33.8759L17.4301 33.8781L17.2914 33.8789L17.153 33.8783L17.0145 33.8763L16.8762 33.8729L16.7378 33.868L16.5998 33.8618L16.4618 33.8542L16.3239 33.8451L16.1865 33.8346L16.0489 33.8228L15.9115 33.8095L15.7749 33.7949L15.6379 33.7789L15.5013 33.7614L15.3651 33.7426L15.2291 33.7225L15.0935 33.7009L14.9579 33.678L14.8228 33.6537L14.6881 33.628L14.5537 33.601L14.4194 33.5726L14.2859 33.5429L14.1525 33.5119L14.0193 33.4794L13.887 33.4457L13.7548 33.4106L13.6231 33.3742L13.492 33.3365L13.361 33.2974L13.2305 33.257L13.1008 33.2154L12.9715 33.1724L12.8425 33.1282L12.7143 33.0826L12.5864 33.0358L12.4592 32.9877L12.3324 32.9383L12.2063 32.8877L12.0808 32.8359L11.9557 32.7827L11.8313 32.7283L11.7075 32.6727L11.5845 32.6159L11.4619 32.5578L11.3401 32.4986L11.219 32.4381L11.0984 32.3764L10.9784 32.3135L10.8596 32.2495L10.7408 32.1841L10.6235 32.1179L10.5063 32.0503L10.39 31.9816L10.2748 31.9118L10.1598 31.8408L10.046 31.7687L9.93269 31.6954L9.82045 31.6212L9.70877 31.5457L9.59813 31.4692L9.48797 31.3915L9.3792 31.313L9.27073 31.2331L9.16343 31.1524L9.05673 31.0705L8.95134 30.9878L8.84642 30.9038L8.74243 30.8188L8.63947 30.7329L8.5376 30.6462L8.43636 30.5582L8.33604 30.4692L8.23693 30.3796L8.13846 30.2886L8.04123 30.197L7.94471 30.1042L7.84936 30.0107L7.75485 29.9162L7.66148 29.8208L7.56891 29.7244L7.47763 29.6274L7.3871 29.5292L7.29772 29.4303L7.20922 29.3304L7.12202 29.23L7.03565 29.1285L6.95049 29.0263L6.86625 28.9232L6.78327 28.8195L6.70124 28.7149L6.62011 28.6093L6.54032 28.5032L6.46167 28.3965L6.38392 28.2888L6.30752 28.1806L6.23203 28.0715L6.15773 27.9617L6.08438 27.851L6.01257 27.7403L5.94152 27.6283L5.87186 27.516L5.80325 27.4029L5.73587 27.2893L5.6695 27.1749L5.60447 27.0601L5.54043 26.9444L5.47773 26.8285L5.41615 26.7118L5.35582 26.5948L5.29657 26.4769L5.23856 26.3587L5.18178 26.2399L5.1262 26.1207L5.07192 26.0011L5.01868 25.8807L4.96671 25.76L4.91606 25.639L4.86654 25.5174L4.81828 25.3954L4.77119 25.2729L4.72547 25.1503L4.68096 25.0272L4.63753 24.9033L4.59555 24.7797L4.55466 24.6552L4.51519 24.5309L4.47678 24.4057L4.43973 24.2805L4.40394 24.1551L4.36945 24.0295L4.3361 23.9032L4.30406 23.7768L4.27334 23.6504L4.24387 23.5237L4.21562 23.3966L4.18868 23.2694L4.16301 23.1421L4.13857 23.0144L4.11541 22.8865L4.09358 22.7589L4.07297 22.6308L4.05367 22.5028L4.0356 22.3744L4.01885 22.2462L4.00333 22.1176L3.98912 21.9893L3.97614 21.8604L3.96449 21.732L3.9541 21.6036L3.94495 21.4747L3.93709 21.346L3.93051 21.2175L3.92521 21.089L3.92115 20.9602L3.91837 20.8317L3.91686 20.7035L3.91662 20.5749L3.91764 20.4464L3.91991 20.3185L3.92345 20.1903L3.92825 20.0622L3.9343 19.9345L3.94161 19.8069L3.95017 19.6793L3.95998 19.5519L3.97104 19.4247L3.98334 19.2977L3.99685 19.1712L4.01165 19.0445L4.02765 18.9183L4.04489 18.7923L4.06338 18.6665L4.08307 18.541L4.10397 18.4159L4.12612 18.2909L4.14945 18.1664L4.17403 18.0421L4.19974 17.9184L4.22676 17.7946L4.25489 17.6715L4.2842 17.5489L4.3148 17.4262L4.34651 17.3042L4.3794 17.1827L4.41352 17.0613L4.44869 16.9408L4.48515 16.8203L4.5227 16.7005L4.56142 16.5811L4.60129 16.4621L4.64224 16.3439L4.68448 16.2257L4.72769 16.1085L4.77205 15.9917L4.81767 15.8751L4.86418 15.7596L4.91198 15.6442L4.96081 15.5296L5.0107 15.4155L5.06181 15.3019L5.1138 15.1892L5.16702 15.0768L5.22123 14.9652L5.27652 14.8542L5.33286 14.7439L5.39027 14.6341L5.44873 14.525L5.50813 14.4168L5.56864 14.3091L5.63014 14.2021L5.69266 14.0958L5.75614 13.9902L5.82071 13.8853L5.8861 13.7814L5.95265 13.6779L6.01996 13.5754L6.08852 13.4734L6.15771 13.3725L6.22807 13.2721L6.29935 13.1726L6.37139 13.074L6.44446 12.9762L6.51855 12.8789L6.59339 12.7827L6.66907 12.6875L6.74579 12.5928L6.82329 12.4992L6.90179 12.4062L6.98092 12.3144L7.06115 12.2231L7.142 12.133L7.22375 12.0437L7.30634 11.9553L7.38976 11.8678L7.47391 11.7812L7.55885 11.6956L7.64478 11.6107L7.7312 11.527L7.81845 11.4442L7.90659 11.3622L7.99539 11.2813L8.08478 11.2014L8.17516 11.1223L8.26596 11.0444L8.35781 10.9672L8.44994 10.8913L8.54302 10.8163L8.63677 10.7422L8.73101 10.6692L8.8261 10.5972L8.92175 10.5262L9.01794 10.4563L9.11486 10.3874L9.21234 10.3195L9.31042 10.2527L9.40901 10.187L9.50822 10.1223L9.6081 10.0586L9.70843 9.99601L9.80932 9.9345L9.9107 9.87409L10.0128 9.81466L10.1151 9.75647L10.218 9.69931L10.3215 9.64323L10.4255 9.58819L10.5297 9.53437L10.6346 9.4816L10.7398 9.42996L10.8455 9.37942L10.9517 9.32996L11.0581 9.28167L11.165 9.23451L11.2724 9.18843L11.38 9.14353L11.488 9.09975L11.5964 9.0571L11.7051 9.01558L11.8141 8.97522L11.9235 8.93601L12.0331 8.89793L12.1431 8.86099L12.2533 8.82524L12.3638 8.79061L12.4745 8.75716L12.5855 8.72484L12.6968 8.69369L12.8082 8.66371L12.9199 8.63487L13.0317 8.60721L13.1438 8.58071L13.256 8.55538L13.3684 8.53121L13.4809 8.50821L13.5936 8.48637L13.7064 8.46572L13.8194 8.44621L13.9324 8.42789L14.0455 8.41073L14.1587 8.39474L14.272 8.37992L14.3853 8.36627L14.4988 8.35378L14.6122 8.34247L14.7256 8.33232L14.8391 8.32334L14.9525 8.31553L15.066 8.30888L15.1794 8.3034L15.2928 8.29908L15.4062 8.29592L15.5195 8.29392L15.6327 8.29308L15.7459 8.2934L15.8589 8.29488L15.9719 8.29751L16.0848 8.3013L16.1975 8.30623L16.3101 8.31231L16.4225 8.31954L16.5348 8.32791L16.6469 8.33742L16.7588 8.34807L16.8706 8.35986L16.9821 8.37278L17.0935 8.38683L17.2046 8.40201L17.3155 8.41831L17.4261 8.43573L17.5364 8.45427L17.6465 8.47392L17.7564 8.49469L17.8659 8.51655L17.9751 8.53952L18.0841 8.5636L18.1926 8.58876L18.3009 8.61501L18.4089 8.64236L18.5164 8.67079L18.6236 8.70028L18.7304 8.73084L18.8369 8.7625L18.943 8.7952L19.0486 8.82897L19.1538 8.86378L19.2587 8.89966L19.3631 8.93656L19.467 8.9745L19.5705 9.0135L19.6735 9.05349L19.7761 9.09454L19.8781 9.13656L19.9797 9.17963L20.0807 9.22369L20.1812 9.26874L20.2813 9.31481L20.3808 9.36183L20.4797 9.40987L20.5782 9.45887L20.6759 9.5088L20.7733 9.55974L20.8699 9.6116L20.9661 9.66445L21.0615 9.71819L21.1565 9.7729L21.2508 9.82855L21.3444 9.88506L21.4375 9.94252L21.5299 10.0009L21.6216 10.0602L21.7127 10.1203L21.8032 10.1814L21.8929 10.2432L21.982 10.306L22.0705 10.3697L22.1581 10.4342L22.2451 10.4995L22.3314 10.5657L22.417 10.6328L22.5019 10.7006L22.5859 10.7692L22.6693 10.8387L22.7519 10.9089L22.8338 10.98L22.9148 11.0518L22.9952 11.1244L23.0747 11.1977L23.1534 11.2718L23.2313 11.3467L23.3085 11.4223L23.3848 11.4986L23.4604 11.5757L23.5351 11.6534L23.609 11.7318L23.682 11.811L23.7543 11.8908L23.8257 11.9713L23.8962 12.0525L23.9659 12.1343L24.0346 12.2168L24.1026 12.2999L24.1697 12.3836L24.2359 12.468L24.3012 12.553L24.3656 12.6385L24.4291 12.7247L24.4917 12.8114L24.5534 12.8987L24.6143 12.9866L24.6741 13.075L24.7331 13.1639L24.7912 13.2534L24.8483 13.3434L24.9044 13.4339L24.9597 13.525L25.014 13.6165L25.0674 13.7085L25.1198 13.8009L25.1713 13.8939L25.2217 13.9872L25.2713 14.081L25.3199 14.1753L25.3675 14.2699L25.4141 14.365L25.4598 14.4605L25.5045 14.5563L25.5482 14.6526L25.5909 14.7492L25.6326 14.8461L25.6734 14.9435L25.7131 15.0411L25.7519 15.1391L25.7896 15.2373L25.8264 15.336L25.8621 15.4348L25.8969 15.534L25.9307 15.6335L25.9634 15.7332L25.9951 15.8331L26.0258 15.9333L26.0556 16.0338L26.0842 16.1344L26.1119 16.2352L26.1386 16.3363L26.1642 16.4376L26.1888 16.539L26.2124 16.6406L26.235 16.7423L26.2566 16.8442L26.2771 16.9463L26.2966 17.0484L26.3151 17.1507L26.3326 17.253L26.349 17.3555L26.3645 17.458L26.3789 17.5607L26.3922 17.6633L26.4046 17.7661L26.4159 17.8688L26.4262 17.9716L26.4355 18.0744L26.4438 18.1772L26.451 18.2801L26.4573 18.3828L26.4625 18.4856L26.4667 18.5884L26.4698 18.691L26.472 18.7938L26.4731 18.8963L26.4733 18.9988L26.4724 19.1012L26.4705 19.2036L26.4676 19.3058L26.4637 19.4079L26.4588 19.5098L26.4529 19.6116L26.446 19.7134L26.4381 19.8149L26.4293 19.9162L26.4194 20.0174L26.4085 20.1184L26.3967 20.2192L26.3838 20.3197L26.37 20.4201L26.3552 20.5202L26.3395 20.6201L26.3227 20.7198L26.305 20.8191L26.2863 20.9183L26.2667 21.0171L26.2461 21.1157L26.2246 21.2139L26.2021 21.3119L26.1787 21.4095L26.1543 21.5068L26.129 21.6038L26.1027 21.7004L26.0756 21.7967L26.0475 21.8926L26.0185 21.9881L25.9885 22.0833L25.9576 22.1781L25.9259 22.2724L25.8933 22.3664L25.8597 22.4599L25.8253 22.5531L25.7899 22.6458L25.7537 22.738L25.7166 22.8298L25.6786 22.9211L25.6399 23.0119L25.6001 23.1023L25.5596 23.1922L25.5182 23.2816L25.476 23.3705L25.4329 23.4589L25.389 23.5467L25.3443 23.634L25.2987 23.7209L25.2523 23.8071L25.2052 23.8927L25.1572 23.9779L25.1084 24.0624L25.0588 24.1465L25.0085 24.2298L24.9574 24.3127L24.9054 24.3949L24.8528 24.4765L24.7994 24.5575L24.7452 24.6379L24.6903 24.7176L24.6347 24.7968L24.5783 24.8753L24.5212 24.953L24.4634 25.0302L24.4048 25.1068L24.3457 25.1825L24.2857 25.2578L24.2251 25.3323L24.1639 25.406L24.1019 25.4791L24.0393 25.5515L23.976 25.6232L23.9122 25.6941L23.8476 25.7645L23.7824 25.834L23.7165 25.9028L23.6502 25.9708L23.583 26.0383L23.5155 26.1047L23.4472 26.1705L23.3784 26.2356L23.3089 26.3L23.239 26.3634L23.1685 26.4262L23.0974 26.4882L23.0258 26.5494L22.9536 26.6098L22.881 26.6693L22.8077 26.7282L22.7339 26.7862L22.6598 26.8433L22.585 26.8997L22.5098 26.9553L22.4342 27.01L22.358 27.0639L22.2813 27.1171L22.2044 27.1692L22.1269 27.2206L22.0488 27.2713L21.9706 27.3209L21.8916 27.3699L21.8125 27.4178L21.7329 27.465L21.653 27.5113L21.5726 27.5568L21.4919 27.6013L21.4107 27.6451L21.3294 27.6878L21.2475 27.7299L21.1654 27.7709L21.083 27.8111L21.0002 27.8505L20.917 27.8889L20.8337 27.9265L20.7501 27.9631L20.6662 27.9988L20.5818 28.0338L20.4973 28.0678L20.4125 28.1009L20.3278 28.1329L20.2422 28.1644L20.157 28.1947L20.0711 28.2242L19.9855 28.2527L19.8991 28.2805L19.813 28.3072L19.7266 28.333L19.64 28.358L19.553 28.382L19.4663 28.4051L19.3789 28.4274L19.292 28.4486L19.2045 28.469L19.117 28.4885L19.0295 28.507L18.9417 28.5247L18.8539 28.5414L18.7663 28.5572L18.6784 28.5721L18.5901 28.5861L18.5023 28.5991L18.4142 28.6113L18.3262 28.6225L18.238 28.6329L18.1498 28.6423L18.0617 28.6508L17.9734 28.6584L17.8854 28.6651L17.7971 28.6709L17.7092 28.6757L17.621 28.6797L17.5332 28.6827L17.4451 28.6849L17.3572 28.6861L17.2693 28.6865L17.1817 28.6859L17.094 28.6845L17.0064 28.6821L16.9191 28.6789L16.8316 28.6747L16.7444 28.6697L16.6574 28.6638L16.5707 28.657L16.4837 28.6493L16.3971 28.6408L16.3109 28.6313L16.2245 28.621L16.1384 28.6098L16.0525 28.5977L15.9669 28.5848L15.8812 28.571L15.7962 28.5564L15.7111 28.5409L15.6265 28.5245L15.5418 28.5073L15.4576 28.4892L15.3736 28.4703L15.2899 28.4506L15.2062 28.4299L15.1234 28.4086L15.0402 28.3863L14.9577 28.3632L14.8754 28.3393L14.7935 28.3146L14.712 28.2891L14.6306 28.2627L14.5496 28.2355L14.469 28.2076L14.3888 28.1788L14.3088 28.1492L14.2293 28.1189L14.1501 28.0878L14.0714 28.0559L13.993 28.0232L13.9151 27.9897L13.8376 27.9555L13.7606 27.9207L13.6837 27.8848L13.6074 27.8484L13.5316 27.8112L13.4562 27.7732L13.3811 27.7344L13.3068 27.6951L13.2327 27.6549L13.1591 27.614L13.0862 27.5725L13.0134 27.5301L12.9412 27.4871L12.8699 27.4436L12.7986 27.3991L12.728 27.354L12.658 27.3084L12.5883 27.2619L12.5194 27.2149L12.4506 27.167L12.383 27.1188L12.3154 27.0697L12.2487 27.0201L12.1822 26.9697L12.1167 26.9189L12.0513 26.8672L11.9868 26.8151L11.9229 26.7624L11.8594 26.7089L11.7965 26.6549L11.7343 26.6004L11.6728 26.5453L11.6115 26.4894L11.5513 26.4333L11.4913 26.3763L11.4324 26.3191L11.3737 26.261L11.3157 26.2025L11.2587 26.1436L11.2019 26.0839L11.1459 26.0239L11.0907 25.9634L11.0358 25.9021L10.9819 25.8407L10.9285 25.7786L10.8759 25.716L10.8238 25.6529L10.7724 25.5894L10.7218 25.5255L10.6718 25.4611L10.6226 25.3963L10.5739 25.3309L10.5261 25.2653L10.4789 25.1992L10.4323 25.1325L10.3866 25.0656L10.3414 24.9982L10.2971 24.9305L10.2535 24.8623L10.2105 24.7938L10.1683 24.7249L10.1267 24.6556L10.086 24.5861L10.0461 24.5163L10.0067 24.4458L9.96819 24.3754L9.9303 24.3043L9.8932 24.2331L9.85685 24.1615L9.82124 24.0896L9.78642 24.0176L9.75241 23.9454L9.71896 23.8725L9.68639 23.7996L9.65454 23.7264L9.62347 23.653L9.59306 23.5791L9.56355 23.5053L9.53481 23.4313L9.5067 23.3568L9.47945 23.2823L9.45291 23.2074L9.42716 23.1325L9.40224 23.0575L9.378 22.9821L9.35457 22.9066L9.33194 22.8311L9.31003 22.7552L9.28886 22.6791L9.26854 22.6032L9.24899 22.5271L9.23017 22.4507L9.21219 22.3745L9.19489 22.2978L9.17842 22.2212L9.16273 22.1445L9.14775 22.0675L9.13367 21.991L9.12024 21.9139L9.10768 21.8372L9.09581 21.7599L9.08479 21.6831L9.07449 21.606L9.06499 21.5289L9.05624 21.4517L9.0483 21.3749L9.04107 21.2975L9.03466 21.2206L9.02899 21.1434L9.02412 21.0666L9.01999 20.9895L9.01663 20.9125L9.01403 20.8354L9.01221 20.759L9.01113 20.682L9.01083 20.6052L9.01127 20.5287L9.01247 20.4522L9.01443 20.3758L9.01715 20.2994L9.0206 20.2232L9.02481 20.1472L9.02977 20.0713L9.03548 19.9954L9.04192 19.9198L9.0491 19.8443L9.05702 19.769L9.06571 19.6936L9.07508 19.6187L9.08521 19.5439L9.09604 19.4694L9.10765 19.3947L9.11991 19.3207L9.13295 19.2465L9.14666 19.1729L9.16115 19.0991L9.17628 19.0259L9.19215 18.9527L9.20869 18.88L9.22603 18.8071L9.24389 18.7352L9.26266 18.6627L9.28197 18.5911L9.30198 18.5196L9.32269 18.4485L9.34414 18.3774L9.36618 18.3069L9.38897 18.2364L9.41232 18.1666L9.43647 18.0967L9.46119 18.0275L9.48654 17.9586L9.51266 17.8897L9.53935 17.8214L9.56661 17.7537L9.59468 17.6858L9.62321 17.6188L9.65251 17.5518L9.6824 17.4853L9.71286 17.4193L9.74397 17.3536L9.77565 17.2884L9.80807 17.2233L9.84101 17.1588L9.87444 17.0949L9.90865 17.0311L9.9433 16.968L9.97862 16.9051L10.0145 16.8428L10.0509 16.7808L10.0879 16.7195L10.1256 16.6583L10.1636 16.5979L10.2024 16.5377L10.2415 16.4782L10.2814 16.419L10.3216 16.3604L10.3625 16.3022L10.404 16.2444L10.4457 16.1874L10.4882 16.1306L10.5311 16.0744L10.5744 16.0188L10.6183 15.9637L10.6628 15.909L10.7078 15.8548L10.753 15.8013L10.7988 15.7483L10.8452 15.6957L10.892 15.6437L10.9392 15.5922L10.9868 15.5414L11.0349 15.4912L11.0835 15.4413L11.1324 15.3921L11.182 15.3433L11.2317 15.2954L11.2819 15.2479L11.3327 15.2009L11.3837 15.1545L11.4351 15.1088L11.487 15.0636L11.5393 15.0189L11.5918 14.975L11.6448 14.9315L11.6981 14.8887L11.7517 14.8466L11.8058 14.8049L11.86 14.764L11.9149 14.7235L11.97 14.6837L12.0252 14.6446L12.0809 14.6061L12.1369 14.5682L12.1932 14.5308L12.2498 14.4942L12.3066 14.4582L12.3639 14.4227L12.4213 14.3879L12.479 14.3538L12.537 14.3203L12.5952 14.2874L12.6538 14.2551L12.7124 14.2236L12.7714 14.1926L12.8305 14.1624L12.89 14.1327L12.9497 14.1037L13.0095 14.0753L13.0696 14.0476L13.1297 14.0206L13.1902 13.9942L13.2508 13.9684L13.3116 13.9433L13.3725 13.9189L13.4337 13.8951L13.495 13.872L13.5564 13.8496L13.6179 13.8278L13.6797 13.8067L13.7415 13.7862L13.8035 13.7664L13.8655 13.7473L13.9277 13.7288L13.9899 13.711L14.0523 13.6938L14.1148 13.6773L14.1774 13.6615L14.2399 13.6463L14.3026 13.6318L14.3654 13.618L14.4282 13.6048L14.491 13.5923L14.5539 13.5804L14.6168 13.5693L14.6797 13.5587L14.7427 13.5489L14.8057 13.5397L14.8687 13.5311L14.9317 13.5232L14.9947 13.516L15.0576 13.5094L15.1205 13.5035L15.1835 13.4982L15.2464 13.4936L15.3092 13.4897L15.372 13.4864L15.4348 13.4837L15.4975 13.4817L15.5601 13.4804L15.6227 13.4797L15.6852 13.4796L15.7475 13.4802L15.8099 13.4814L15.8721 13.4832L15.9342 13.4857L15.9961 13.4888L16.0581 13.4926L16.1199 13.497L16.1814 13.502L16.243 13.5077L16.3043 13.5139L16.3656 13.5208L16.4266 13.5283L16.4876 13.5365L16.5483 13.5452L16.6089 13.5546L16.6693 13.5645L16.7295 13.5751L16.7895 13.5863L16.8494 13.5981L16.909 13.6105L16.9684 13.6234L17.0276 13.637L17.0867 13.6512L17.1454 13.6659L17.204 13.6812L17.2623 13.6972L17.3204 13.7137L17.3782 13.7307L17.4359 13.7484L17.4931 13.7665L17.5503 13.7853L17.6071 13.8047L17.6636 13.8245L17.7199 13.845L17.7759 13.866L17.8316 13.8875L17.887 13.9096L17.9421 13.9322L17.9969 13.9553L18.0514 13.9791L18.1056 14.0033L18.1595 14.028L18.213 14.0532L18.2663 14.079L18.3191 14.1053L18.3717 14.1321L18.4239 14.1594L18.4758 14.1872L18.5273 14.2155L18.5785 14.2443L18.6293 14.2735L18.6797 14.3032L18.7299 14.3335L18.7796 14.3642L18.8289 14.3953L18.8779 14.4269L18.9265 14.459L18.9746 14.4915L19.0224 14.5245L19.0698 14.558L19.1168 14.5918L19.1635 14.6262L19.2096 14.6609L19.2554 14.696L19.3008 14.7316L19.3457 14.7676L19.3902 14.804L19.4344 14.8408L19.478 14.8781L19.5213 14.9157L19.564 14.9536L19.6065 14.9921L19.6483 15.0308L19.6899 15.07L19.7308 15.1094L19.7714 15.1493L19.8115 15.1895L19.8512 15.2301L19.8904 15.271L19.9291 15.3123L19.9674 15.3539L20.0052 15.3959L20.0425 15.4382L20.0793 15.4807L20.1158 15.5237L20.1516 15.5669L20.187 15.6104L20.222 15.6543L20.2564 15.6983L20.2903 15.7428L20.3238 15.7875L20.3568 15.8325L20.3892 15.8777L20.4212 15.9232L20.4527 15.969L20.4837 16.015L20.5141 16.0612L20.5441 16.1078L20.5735 16.1545L20.6025 16.2015L20.6309 16.2487L20.6588 16.2961L20.6862 16.3438L20.7131 16.3916L20.7395 16.4398L20.7654 16.488L20.7907 16.5364L20.8156 16.5851L20.8398 16.6339L20.8636 16.6829L20.8869 16.732L20.9096 16.7813L20.9318 16.8309L20.9535 16.8805L20.9746 16.9303L20.9952 16.9802L21.0154 17.0303L21.0349 17.0804L21.054 17.1309L21.0724 17.1811L21.0905 17.2318L21.1079 17.2824L21.1248 17.3332L21.1412 17.384L21.1571 17.435L21.1724 17.4859L21.1872 17.537L21.2014 17.5881L21.2152 17.6395L21.2284 17.6906L21.2411 17.742L21.2532 17.7934L21.2648 17.8448L21.2759 17.8963L21.2864 17.9477L21.2965 17.9993L21.306 18.0509L21.3149 18.1023L21.3234 18.154L21.3313 18.2056L21.3387 18.257L21.3456 18.3087L21.3519 18.3602L21.3577 18.4117L21.363 18.4633L21.3678 18.5147L21.3721 18.5662L21.3758 18.6174L21.379 18.669L21.3817 18.7202L21.3839 18.7714L21.3856 18.8225L21.3868 18.8738L21.3874 18.9248L21.3876 18.9757L21.3872 19.0265L21.3863 19.0774L21.385 19.128L21.3831 19.1787L21.3808 19.229L21.3779 19.2796L21.3745 19.3297L21.3707 19.3799L21.3663 19.4299L21.3615 19.4799L21.3562 19.5295L21.3504 19.5791L21.3441 19.6287L21.3373 19.678L21.33 19.727L21.3223 19.7761L21.3141 19.8249L21.3054 19.8736L21.2963 19.9221L21.2867 19.9704L21.2766 20.0185L21.2661 20.0665L21.2551 20.1143L21.2436 20.1617L21.2317 20.2091L21.2193 20.2563L21.2066 20.3032L21.1933 20.3499L21.1796 20.3964L21.1655 20.4427L21.1509 20.4887L21.136 20.5345L21.1205 20.5801L21.1047 20.6255L21.0884 20.6704L21.0717 20.7155L21.0546 20.76L21.0371 20.8042L21.0192 20.8484L21.0008 20.8922L20.9821 20.9358L20.963 20.9789L20.9434 21.022L20.9235 21.0647L20.9032 21.1071L20.8825 21.1493L20.8614 21.191L20.8399 21.2327L20.8181 21.2739L20.7959 21.3149L20.7734 21.3554L20.7504 21.3958L20.727 21.436L20.7034 21.4756L20.6795 21.5149L20.6551 21.5541L20.6305 21.5927L20.6053 21.6313L20.58 21.6693L20.5543 21.707L20.5283 21.7445L20.5019 21.7816L20.4753 21.8182L20.4483 21.8547L20.421 21.8907L20.3934 21.9264L20.3654 21.9618L20.3373 21.9967L20.3088 22.0314L20.28 22.0656L20.2509 22.0995L20.2216 22.133L20.192 22.1661L20.162 22.199L20.1318 22.2314L20.1014 22.2635L20.0707 22.2951L20.0397 22.3265L20.0085 22.3573L19.9771 22.3878L19.9454 22.418L19.9134 22.4478L19.8813 22.4771L19.8488 22.5061L19.8162 22.5347L19.7834 22.5628L19.7503 22.5906L19.717 22.6181L19.6836 22.645L19.6498 22.6717L19.616 22.6978L19.5819 22.7236L19.5477 22.749L19.5131 22.774L19.4786 22.7985L19.4437 22.8227L19.4087 22.8465L19.3736 22.8698L19.3383 22.8927L19.3029 22.9153L19.2671 22.9374L19.2315 22.959L19.1955 22.9804L19.1595 23.0012L19.1232 23.0217L19.087 23.0417L19.0505 23.0613L19.014 23.0805L18.9773 23.0993L18.9405 23.1177L18.9036 23.1356L18.8666 23.1531L18.8296 23.1702L18.7923 23.1869L18.7551 23.2031L18.7176 23.219L18.6802 23.2345L18.6427 23.2494L18.6052 23.264L18.5674 23.2782L18.5297 23.2919L18.492 23.3052L18.4542 23.3181L18.4163 23.3306L18.3784 23.3427L18.3403 23.3544L18.3024 23.3656L18.2643 23.3764L18.2263 23.3867L18.1881 23.3968L18.1501 23.4063L18.1121 23.4154L18.0738 23.4242L18.0357 23.4325L17.9976 23.4404L17.9596 23.4478L17.9213 23.4549L17.8833 23.4616L17.845 23.4679L17.8071 23.4737L17.769 23.4791L17.7311 23.4842L17.6931 23.4888L17.6551 23.493L17.6172 23.4968L17.5793 23.5002L17.5416 23.5032L17.5038 23.5059L17.4661 23.5081L17.4284 23.5099L17.3908 23.5113L17.3533 23.5124L17.316 23.513L17.2785 23.5132L17.2412 23.5131L17.204 23.5126L17.167 23.5117L17.13 23.5104L17.0931 23.5087L17.0561 23.5067L17.0196 23.5042L16.9829 23.5014L16.9464 23.4982L16.9101 23.4947L16.8737 23.4907L16.8377 23.4865L16.8017 23.4818L16.7658 23.4768L16.73 23.4714L16.6944 23.4657L16.6589 23.4596L16.6236 23.4531L16.5884 23.4463L16.5533 23.4391L16.5185 23.4316L16.4839 23.4238L16.4491 23.4156L16.4149 23.4071L16.3805 23.3982L16.3465 23.389L16.3126 23.3795L16.2789 23.3696L16.2454 23.3594L16.212 23.3489L16.1788 23.338L16.1458 23.3269L16.113 23.3154L16.0805 23.3036L16.048 23.2915L16.0157 23.279L15.9838 23.2664L15.952 23.2533L15.9203 23.24L15.8891 23.2264L15.8578 23.2125L15.8268 23.1982L15.7961 23.1838L15.7657 23.169L15.7353 23.154L15.7052 23.1386L15.6753 23.123L15.6458 23.1072L15.6165 23.091L15.5872 23.0746L15.5583 23.0578L15.5296 23.0409L15.5012 23.0237L15.473 23.0062L15.4451 22.9886L15.4173 22.9706L15.39 22.9525L15.3627 22.934L15.3357 22.9153L15.3091 22.8964L15.2826 22.8772L15.2565 22.8579L15.2306 22.8383L15.205 22.8185L15.1796 22.7985L15.1544 22.7782L15.1296 22.7578L15.1051 22.7372L15.0807 22.7162L15.0567 22.6952L15.0329 22.674L15.0094 22.6525L14.9862 22.6308L14.9633 22.6091L14.9407 22.5871L14.9183 22.5649L14.8962 22.5425L14.8744 22.52L14.8529 22.4973L14.8316 22.4744L14.8107 22.4514L14.79 22.4282L14.7696 22.4049L14.7496 22.3814L14.7298 22.3578L14.7102 22.334L14.691 22.31L14.6721 22.286L14.6535 22.2619L14.6351 22.2375L14.6172 22.2131L14.5994 22.1885L14.5819 22.1638L14.5648 22.1391L14.5479 22.1141L14.5314 22.0891L14.5151 22.064L14.4992 22.0388L14.4835 22.0135L14.4682 21.9881L14.4531 21.9626L14.4384 21.9371L14.4239 21.9113L14.4097 21.8855L14.3959 21.8598L14.3823 21.8339L14.369 21.8079L14.3561 21.782L14.3434 21.7558L14.3311 21.7297L14.319 21.7035L14.3072 21.6773L14.2958 21.651L14.2846 21.6246L14.2737 21.5982L14.2631 21.5719L14.2529 21.5455L14.2429 21.519L14.2332 21.4925L14.2238 21.4659L14.2147 21.4394L14.206 21.4129L14.1975 21.3863L14.1892 21.3596L14.1814 21.3332L14.1737 21.3065L14.1664 21.28L14.1594 21.2534L14.1526 21.2268L14.1462 21.2003L14.14 21.1737L14.1341 21.1472L14.1285 21.1207L14.1232 21.0942L14.1182 21.0677L14.1135 21.0413L14.109 21.0149L14.1048 20.9884L14.1009 20.9622L14.0973 20.936L14.094 20.9098L14.0909 20.8835L14.0881 20.8574L14.0856 20.8313L14.0834 20.8054L14.0814 20.7793L14.0797 20.7536L14.0782 20.7276L14.0771 20.7019L14.0762 20.6762L14.0755 20.6506L14.0751 20.6251L14.075 20.5996L14.075 20.563L14.075 20.519L14.075 20.4835L10.5795 20.4835L10.5787 20.5363L10.5784 20.5984L10.5786 20.6606L10.5796 20.7228L10.5811 20.7851L10.5833 20.8475L10.5862 20.9099L10.5896 20.9723L10.5938 21.0348L10.5985 21.0974L10.6039 21.16L10.61 21.2226L10.6166 21.2852L10.624 21.3477L10.6319 21.4102L10.6406 21.473L10.6498 21.5355L10.6597 21.598L10.6703 21.6605L10.6815 21.7231L10.6933 21.7854L10.7058 21.8478L10.719 21.9102L10.7328 21.9724L10.7472 22.0346L10.7623 22.0968L10.7781 22.1588L10.7945 22.2207L10.8115 22.2826L10.8292 22.3444L10.8476 22.406L10.8665 22.4674L10.8862 22.5288L10.9064 22.5901L10.9274 22.6512L10.9489 22.7122L10.9711 22.773L10.994 22.8336L11.0175 22.8941L11.0416 22.9544L11.0664 23.0145L11.0918 23.0744L11.1179 23.1342L11.1446 23.1937L11.1719 23.253L11.1998 23.3121L11.2284 23.371L11.2576 23.4297L11.2875 23.488L11.3179 23.5462L11.349 23.6041L11.3808 23.6617L11.4131 23.7191L11.4461 23.7762L11.4796 23.8331L11.5138 23.8896L11.5486 23.9459L11.5841 24.0019L11.6201 24.0575L11.6567 24.1128L11.6939 24.1678L11.7317 24.2225L11.7701 24.2768L11.8091 24.3309L11.8487 24.3845L11.889 24.4379L11.9297 24.4908L11.9711 24.5434L12.013 24.5956L12.0555 24.6474L12.0986 24.6988L12.1423 24.7499L12.1865 24.8006L12.2313 24.8508L12.2766 24.9007L12.3225 24.9501L12.369 24.9991L12.416 25.0477L12.4635 25.0958L12.5116 25.1434L12.5602 25.1907L12.6094 25.2375L12.6591 25.2838L12.7093 25.3296L12.76 25.375L12.8113 25.4199L12.863 25.4643L12.9152 25.5082L12.968 25.5516L13.0213 25.5945L13.075 25.6369L13.1293 25.6788L13.184 25.7202L13.2392 25.761L13.2949 25.8014L13.351 25.8411L13.4076 25.8804L13.4646 25.919L13.5221 25.9571L13.5801 25.9948L13.6386 26.0318L13.6974 26.0682L13.7567 26.104L13.8164 26.1393L13.8765 26.174L13.937 26.2081L13.998 26.2416L14.0594 26.2746L14.1211 26.3068L14.1833 26.3385L14.2458 26.3696L14.3087 26.4001L14.372 26.4299L14.4357 26.4591L14.4997 26.4877L14.5641 26.5156L14.6288 26.5429L14.6939 26.5696L14.7594 26.5956L14.8251 26.6209L14.8911 26.6456L14.9576 26.6696L15.0242 26.6929L15.0913 26.7156L15.1586 26.7376L15.2262 26.7589L15.2941 26.7796L15.3623 26.7995L15.4308 26.8188L15.4995 26.8374L15.5684 26.8552L15.6377 26.8724L15.7072 26.8889L15.7769 26.9046L15.8469 26.9197L15.9171 26.934L15.9874 26.9476L16.0581 26.9605L16.1289 26.9727L16.1998 26.9842L16.2711 26.9949L16.3425 27.0049L16.414 27.0141L16.4858 27.0226L16.5576 27.0304L16.6296 27.0375L16.7019 27.0438L16.7742 27.0493L16.8467 27.0541L16.9192 27.0582L16.9919 27.0615L17.0647 27.064L17.1376 27.0658L17.2106 27.0668L17.2837 27.0671L17.3569 27.0666L17.4301 27.0653L17.5034 27.0633L17.5767 27.0605L17.6502 27.057L17.7236 27.0527L17.797 27.0476L17.8706 27.0417L17.9441 27.0351L18.0176 27.0277L18.0911 27.0195L18.1646 27.0106L18.2382 27.0008L18.3116 26.9903L18.3851 26.9791L18.4585 26.967L18.5318 26.9542L18.6051 26.9406L18.6784 26.9262L18.7516 26.911L18.8246 26.8951L18.8976 26.8784L18.9706 26.8609L19.0434 26.8427L19.1161 26.8236L19.1886 26.8038L19.2611 26.7832L19.3334 26.7618L19.4056 26.7397L19.4776 26.7168L19.5495 26.6931L19.6212 26.6687L19.6927 26.6434L19.7641 26.6175L19.8352 26.5907L19.9062 26.5632L19.977 26.5349L20.0475 26.5058L20.1178 26.476L20.1879 26.4454L20.2578 26.4141L20.3273 26.382L20.3967 26.3492L20.4658 26.3156L20.5346 26.2812L20.6032 26.2461L20.6714 26.2103L20.7394 26.1737L20.8071 26.1364L20.8744 26.0983L20.9415 26.0595L21.0081 26.02L21.0746 25.9797L21.1406 25.9387L21.2063 25.897L21.2716 25.8545L21.3367 25.8113L21.4013 25.7674L21.4655 25.7228L21.5293 25.6776L21.5928 25.6316L21.6559 25.5848L21.7185 25.5374L21.7808 25.4893L21.8426 25.4405L21.904 25.391L21.9649 25.3408L22.0254 25.29L22.0855 25.2384L22.1451 25.1862L22.2042 25.1333L22.2629 25.0798L22.3211 25.0256L22.3788 24.9708L22.4359 24.9153L22.4926 24.8591L22.5489 24.8023L22.6045 24.7449L22.6596 24.6869L22.7143 24.6282L22.7684 24.5689L22.8219 24.509L22.8749 24.4484L22.9273 24.3873L22.9792 24.3255L23.0306 24.2632L23.0813 24.2003L23.1314 24.1368L23.181 24.0727L23.23 24.008L23.2783 23.9428L23.3261 23.877L23.3733 23.8106L23.4198 23.7438L23.4657 23.6763L23.511 23.6083L23.5556 23.5398L23.5996 23.4707L23.643 23.4012L23.6857 23.3311L23.7277 23.2605L23.7691 23.1895L23.8098 23.1179L23.8498 23.0458L23.8891 22.9733L23.9278 22.9002L23.9657 22.8268L24.0029 22.7528L24.0395 22.6784L24.0753 22.6036L24.1105 22.5283L24.1449 22.4526L24.1786 22.3764L24.2115 22.2999L24.2437 22.2229L24.2752 22.1455L24.3059 22.0677L24.3359 21.9896L24.3651 21.911L24.3936 21.8321L24.4213 21.7528L24.4483 21.6732L24.4745 21.5932L24.4999 21.5128L24.5245 21.4322L24.5483 21.3512L24.5714 21.2698L24.5937 21.1882L24.6151 21.1062L24.6358 21.024L24.6557 20.9415L24.6747 20.8587L24.693 20.7756L24.7104 20.6923L24.7271 20.6087L24.7429 20.5248L24.7579 20.4408L24.772 20.3564L24.7854 20.2719L24.7979 20.1872L24.8095 20.1022L24.8204 20.0171L24.8304 19.9317L24.8395 19.8462L24.8478 19.7605L24.8553 19.6747L24.8619 19.5887L24.8677 19.5025L24.8726 19.4162L24.8766 19.3298L24.8798 19.2433L24.8821 19.1566L24.8836 19.0699L24.8842 18.983L24.884 18.8961L24.8828 18.8091L24.8809 18.7221L24.878 18.635L24.8743 18.5478L24.8697 18.4606L24.8642 18.3733L24.8578 18.2861L24.8506 18.1988L24.8425 18.1115L24.8335 18.0243L24.8237 17.9371L24.813 17.8499L24.8013 17.7626L24.7888 17.6755L24.7755 17.5884L24.7612 17.5014L24.7461 17.4144L24.7301 17.3275L24.7132 17.2408L24.6955 17.1541L24.6768 17.0675L24.6573 16.981L24.6369 16.8947L24.6156 16.8085L24.5935 16.7224L24.5704 16.6365L24.5465 16.5508L24.5217 16.4652L24.4961 16.3798L24.4696 16.2946L24.4421 16.2096L24.4139 16.1248L24.3847 16.0403L24.3547 15.9559L24.3239 15.8718L24.2921 15.7879L24.2595 15.7043L24.2261 15.621L24.1917 15.5379L24.1566 15.4552L24.1206 15.3727L24.0837 15.2905L24.0459 15.2086L24.0074 15.127L23.9679 15.0458L23.9277 14.9649L23.8866 14.8843L23.8446 14.8041L23.8019 14.7243L23.7582 14.6448L23.7138 14.5658L23.6685 14.4871L23.6225 14.4088L23.5756 14.3309L23.5278 14.2534L23.4793 14.1764L23.43 14.0998L23.3799 14.0237L23.3289 13.948L23.2772 13.8727L23.2247 13.798L23.1713 13.7237L23.1172 13.6499L23.0623 13.5766L23.0067 13.5037L22.9503 13.4315L22.8931 13.3597L22.8351 13.2884L22.7764 13.2177L22.7169 13.1476L22.6567 13.078L22.5958 13.009L22.5341 12.9405L22.4716 12.8726L22.4085 12.8053L22.3446 12.7386L22.28 12.6725L22.2147 12.607L22.1487 12.5421L22.082 12.4779L22.0145 12.4142L21.9464 12.3513L21.8776 12.2889L21.8082 12.2273L21.7381 12.1663L21.6673 12.106L21.5958 12.0463L21.5237 11.9874L21.451 11.9291L21.3776 11.8715L21.3036 11.8147L21.2289 11.7586L21.1536 11.7032L21.0777 11.6485L21.0013 11.5945L20.9242 11.5413L20.8465 11.4889L20.7682 11.4372L20.6894 11.3863L20.61 11.3361L20.53 11.2868L20.4495 11.2382L20.3684 11.1904L20.2868 11.1434L20.2046 11.0972L20.1219 11.0518L20.0387 11.0072L19.955 10.9635L19.8708 10.9205L19.786 10.8784L19.7009 10.8372L19.6152 10.7968L19.529 10.7572L19.4424 10.7185L19.3554 10.6807L19.2678 10.6437L19.1799 10.6076L19.0915 10.5724L19.0027 10.5381L18.9135 10.5046L18.8239 10.4721L18.7339 10.4404L18.6435 10.4096L18.5527 10.3798L18.4616 10.3508L18.3701 10.3228L18.2782 10.2957L18.186 10.2695L18.0935 10.2443L18.0006 10.22L17.9074 10.1966L17.814 10.1742L17.7202 10.1527L17.6261 10.1322L17.5318 10.1126L17.4372 10.0939L17.3423 10.0763L17.2472 10.0596L17.1518 10.0438L17.0562 10.0291L16.9604 10.0153L16.8644 10.0025L16.7682 9.99061L16.6717 9.97976L16.5752 9.96989L16.4784 9.961L16.3814 9.95311L16.2843 9.94621L16.1871 9.9403L16.0897 9.93539L15.9922 9.93149L15.8946 9.92858L15.7969 9.92668L15.6991 9.92578L15.6012 9.92588L15.5032 9.927L15.4052 9.92913L15.3071 9.93226L15.209 9.93641L15.1108 9.94158L15.0126 9.94775L14.9144 9.95495L14.8162 9.96316L14.718 9.97239L14.6198 9.98264L14.5217 9.99391L14.4235 10.0062L14.3255 10.0195L14.2275 10.0338L14.1295 10.0492L14.0316 10.0655L13.9339 10.0829L13.8362 10.1013L13.7386 10.1208L13.6412 10.1412L13.5438 10.1627L13.4466 10.1852L13.3496 10.2087L13.2527 10.2332L13.156 10.2587L13.0595 10.2852L12.9632 10.3128L12.867 10.3414L12.7711 10.371L12.6754 10.4016L12.5799 10.4332L12.4847 10.4658L12.3898 10.4994L12.2951 10.534L12.2006 10.5696L12.1065 10.6062L12.0126 10.6438L11.9191 10.6824L11.8258 10.722L11.7329 10.7626L11.6403 10.8042L11.5481 10.8467L11.4562 10.8903L11.3647 10.9348L11.2735 10.9803L11.1828 11.0267L11.0924 11.0742L11.0025 11.1226L10.9129 11.1719L10.8238 11.2222L10.7351 11.2735L10.6468 11.3257L10.559 11.3789L10.4717 11.433L10.3849 11.488L10.2985 11.544L10.2126 11.6009L10.1272 11.6587L10.0423 11.7175L9.958 11.7771L9.87418 11.8377L9.7909 11.8992L9.70818 11.9615L9.626 12.0248L9.54439 12.089L9.46337 12.1541L9.38293 12.22L9.3031 12.2868L9.22385 12.3545L9.14523 12.423L9.06723 12.4924L8.98987 12.5627L8.91316 12.6337L8.83706 12.7057L8.76163 12.7785L8.68689 12.8521L8.61282 12.9265L8.53941 13.0017L8.46672 13.0778L8.39473 13.1546L8.32344 13.2323L8.25287 13.3107L8.18305 13.3899L8.11393 13.4699L8.04558 13.5506L7.97797 13.6322L7.91112 13.7144L7.84504 13.7974L7.77973 13.8812L7.71521 13.9657L7.65148 14.0509L7.58854 14.1368L7.52643 14.2234L7.46512 14.3107L7.40463 14.3987L7.34497 14.4875L7.28615 14.5768L7.22817 14.6669L7.17105 14.7576L7.11479 14.8489L7.05938 14.9409L7.00485 15.0336L6.9512 15.1268L6.89844 15.2207L6.84657 15.3152L6.7956 15.4103L6.74553 15.5059L6.69639 15.6022L6.64815 15.699L6.60085 15.7964L6.55448 15.8943L6.50903 15.9928L6.46453 16.0919L6.421 16.1914L6.37841 16.2914L6.33678 16.392L6.29611 16.4931L6.25643 16.5947L6.21773 16.6967L6.18 16.7992L6.14326 16.9022L6.10751 17.0056L6.07279 17.1094L6.03905 17.2137L6.0063 17.3184L5.9746 17.4235L5.94391 17.529L5.91422 17.6349L5.88558 17.7412L5.85797 17.8478L5.8314 17.9548L5.80586 18.0622L5.78137 18.1699L5.75794 18.2778L5.73555 18.3862L5.71422 18.4948L5.69396 18.6037L5.67475 18.7129L5.65662 18.8224L5.63955 18.9321L5.62356 19.0421L5.60865 19.1524L5.59482 19.2628L5.58207 19.3735L5.57041 19.4844L5.55984 19.5955L5.55037 19.7067L5.54198 19.8181L5.5347 19.9297L5.52851 20.0415L5.52343 20.1534L5.51945 20.2654L5.51658 20.3775L5.51481 20.4898L5.51416 20.6021L5.51461 20.7145L5.51618 20.827L5.51886 20.9396L5.52266 21.0521L5.52757 21.1648L5.53361 21.2775L5.54076 21.3901L5.54904 21.5028L5.55843 21.6155L5.56894 21.7281L5.58059 21.8408L5.59335 21.9533L5.60723 22.0658L5.62223 22.1783L5.63836 22.2907L5.65561 22.403L5.67399 22.5152L5.69348 22.6272L5.7141 22.7392L5.73584 22.851L5.75871 22.9627L5.78269 23.0742L5.80779 23.1855L5.83401 23.2966L5.86135 23.4076L5.8898 23.5184L5.91937 23.6289L5.95006 23.7392L5.98185 23.8493L6.01476 23.9591L6.04877 24.0686L6.08389 24.1779L6.12011 24.2869L6.15745 24.3956L6.19588 24.5039L6.2354 24.612L6.27603 24.7197L6.31775 24.8271L6.36055 24.9341L6.40443 25.0408L6.44941 25.147L6.49547 25.2529L6.54261 25.3584L6.59081 25.4634L6.6401 25.5681L6.69045 25.6723L6.74188 25.7761L6.79435 25.8794L6.84788 25.9822L6.90247 26.0845L6.95809 26.1864L7.01476 26.2877L7.07249 26.3886L7.13127 26.4889L7.19103 26.5887L7.25184 26.6879L7.3137 26.7866L7.37655 26.8847L7.44038 26.9821L7.50526 27.0791L7.57115 27.1754L7.63799 27.2711L7.70586 27.3662L7.77472 27.4607L7.84452 27.5545L7.91532 27.6476L7.98709 27.7401L8.05983 27.832L8.13349 27.9231L8.20813 28.0135L8.28372 28.1033L8.36022 28.1922L8.43766 28.2805L8.51603 28.3681L8.59531 28.4549L8.67551 28.5409L8.75661 28.6262L8.8386 28.7107L8.92147 28.7944L9.00525 28.8773L9.08988 28.9594L9.17539 29.0407L9.26175 29.1212L9.34896 29.2008L9.43703 29.2796L9.52594 29.3576L9.61566 29.4346L9.70619 29.5108L9.79757 29.5862L9.88972 29.6606L9.98269 29.7342L10.0765 29.8068L10.1709 29.8785L10.2662 29.9493L10.3623 30.0192L10.4591 30.0881L10.5567 30.1561L10.655 30.2231L10.754 30.2892L10.8537 30.3542L10.9541 30.4183L11.0552 30.4814L11.1571 30.5435L11.2596 30.6046L11.3627 30.6647L11.4666 30.7238L11.5711 30.7818L11.6762 30.8388L11.7819 30.8948L11.8883 30.9497L11.9953 31.0036L12.1029 31.0564L12.2111 31.1081L12.3198 31.1588L12.4291 31.2083L12.539 31.2568L12.6494 31.3042L12.7604 31.3505L12.8719 31.3956L12.9839 31.4397L13.0964 31.4826L13.2095 31.5244L13.323 31.5651L13.4369 31.6046L13.5514 31.643L13.6663 31.6803L13.7816 31.7163L13.8974 31.7513L14.0135 31.785L14.1301 31.8176L14.2471 31.849L14.3644 31.8792L14.4821 31.9083L14.6002 31.9361L14.7187 31.9628L14.8374 31.9883L14.9565 32.0125L15.076 32.0356L15.1956 32.0574L15.3157 32.0781L15.436 32.0975L15.5565 32.1156L15.6773 32.1326L15.7983 32.1483L15.9196 32.1629L16.0411 32.1761L16.1628 32.1882L16.2847 32.1989L16.4067 32.2085L16.529 32.2168L16.6514 32.2238L16.7739 32.2296L16.8966 32.2342L17.0194 32.2375L17.1423 32.2395L17.2653 32.2403L17.3884 32.2398L17.5115 32.2381L17.6347 32.2351L17.758 32.2308L17.8812 32.2252L18.0046 32.2184L18.1279 32.2103L18.2511 32.201L18.3745 32.1904L18.4977 32.1785L18.6209 32.1653L18.7441 32.1509L18.8672 32.1352L18.9902 32.1182L19.1131 32.1L19.2358 32.0805L19.3585 32.0597L19.4811 32.0376L19.6035 32.0143L19.7258 31.9897L19.8479 31.9638L19.9697 31.9367L20.0914 31.9083L20.2129 31.8787L20.3342 31.8477L20.4552 31.8155L20.576 31.7821L20.6966 31.7474L20.8168 31.7114L20.9368 31.6742L21.0565 31.6358L21.1758 31.596L21.2949 31.5551L21.4136 31.5129L21.5319 31.4694L21.65 31.4247L21.7676 31.3788L21.8849 31.3316L22.0017 31.2833L22.1181 31.2336L22.2341 31.1828L22.3497 31.1308L22.4649 31.0775L22.5795 31.023L22.6938 30.9673L22.8075 30.9104L22.9207 30.8523L23.0334 30.7931L23.1456 30.7326L23.2573 30.6709L23.3684 30.6081L23.479 30.544L23.589 30.4789L23.6984 30.4125L23.8072 30.345L23.9155 30.2763L24.023 30.2065L24.13 30.1356L24.2364 30.0635L24.3421 29.9903L24.4471 29.9159L24.5514 29.8405L24.6551 29.7639L24.7581 29.6862L24.8603 29.6074L24.9619 29.5275L25.0627 29.4465L25.1628 29.3645L25.2621 29.2814L25.3606 29.1972L25.4584 29.112L25.5554 29.0257L25.6516 28.9383L25.747 28.85L25.8415 28.7606L25.9353 28.6702L26.0281 28.5787L26.1202 28.4863L26.2114 28.3929L26.3017 28.2985L26.3912 28.203L26.4797 28.1067L26.5673 28.0094L26.654 27.9111L26.7399 27.8119L26.8248 27.7117L26.9087 27.6106L26.9917 27.5086L27.0737 27.4057L27.1547 27.3019L27.2348 27.1972L27.3139 27.0916L27.392 26.9852L27.4691 26.8779L27.5451 26.7697L27.6202 26.6607L27.6942 26.5509L27.7672 26.4402L27.8391 26.3288L27.9099 26.2165L27.9797 26.1035L28.0484 25.9897L28.116 25.8751L28.1826 25.7597L28.248 25.6436L28.3123 25.5268L28.3755 25.4093L28.4376 25.291L28.4985 25.172L28.5583 25.0524L28.617 24.932L28.6745 24.811L28.7308 24.6894L28.786 24.5671L28.84 24.4441L28.8928 24.3206L28.9444 24.1964L28.9948 24.0716L29.044 23.9463L29.092 23.8204L29.1388 23.6939L29.1844 23.5669L29.2287 23.4393L29.2718 23.3112L29.3137 23.1826L29.3543 23.0535L29.3937 22.9239L29.4318 22.7938L29.4686 22.6633L29.5042 22.5323L29.5385 22.4009L29.5715 22.269L29.6033 22.1368L29.6337 22.0041L29.6629 21.8711L29.6908 21.7377L29.7173 21.6039L29.7426 21.4698L29.7665 21.3353L29.7892 21.2006L29.8105 21.0655L29.8305 20.9301L29.8492 20.7945L29.8665 20.6586L29.8825 20.5224L29.8972 20.386L29.9105 20.2494L29.9225 20.1125L29.9332 19.9755L29.9425 19.8383L29.9504 19.7009L29.957 19.5634L29.9623 19.4257L29.9662 19.2878L29.9687 19.1499L29.9699 19.0119L29.9697 18.8737L29.9682 18.7356L29.9653 18.5973L29.961 18.459L29.9554 18.3207L29.9484 18.1823L29.94 18.0439L29.9302 17.9056L29.9191 17.7673L29.9066 17.629L29.8927 17.4908L29.8775 17.3526L29.8609 17.2145L29.8429 17.0765L29.8236 16.9386L29.8029 16.8009L29.7808 16.6633L29.7573 16.5258L29.7325 16.3885L29.7063 16.2514L29.6787 16.1144L29.6498 15.9777L29.6195 15.8412L29.5878 15.705L29.5548 15.569L29.5205 15.4332L29.4847 15.2977L29.4476 15.1626L29.4092 15.0277L29.3694 14.8931L29.3282 14.7589L29.2857 14.625L29.2419 14.4915L29.1967 14.3584L29.1502 14.2257L29.1023 14.0933L29.0532 13.9614L29.0027 13.83L28.9508 13.6989L28.8977 13.5683L28.8432 13.4382L28.7874 13.3086L28.7303 13.1795L28.6719 13.0509L28.6122 12.9228L28.5512 12.7953L28.4889 12.6683L28.4254 12.5419L28.3605 12.4161L28.2944 12.2909L28.227 12.1663L28.1583 12.0423L28.0884 11.9189L28.0172 11.7962L27.9448 11.6742L27.8711 11.5528L27.7962 11.4322L27.7201 11.3122L27.6427 11.1929L27.5641 11.0744L27.4844 10.9566L27.4034 10.8396L27.3212 10.7233L27.2378 10.6078L27.1532 10.4931L27.0675 10.3792L26.9806 10.2662L26.8925 10.1539L26.8033 10.0425L26.7129 9.93196L26.6214 9.82227L26.5287 9.71346L26.435 9.60555L26.3401 9.49854L26.2441 9.39245L26.147 9.28728L26.0488 9.18304L25.9496 9.07976L25.8493 8.97744L25.7479 8.8761L25.6454 8.77573L25.542 8.67636L25.4374 8.578L25.3319 8.48066L25.2253 8.38435L25.1178 8.28907L25.0092 8.19484L24.8997 8.10169L24.7891 8.0096L24.6776 7.91859L24.5652 7.82868L24.4518 7.73987L24.3375 7.65218L24.2222 7.5656L24.1061 7.48017L23.989 7.39588L23.871 7.31274L23.7522 7.23077L23.6325 7.14997L23.5119 7.07035L23.3905 6.99193L23.2682 6.91471L23.1451 6.8387L23.0212 6.76391L22.8965 6.69034L22.771 6.61802L22.6448 6.54695L22.5178 6.47713L22.39 6.40857L22.2614 6.34129L22.1322 6.27529L22.0022 6.21057L21.8715 6.14715L21.7401 6.08504L21.6081 6.02424L21.4753 5.96476L21.342 5.90661L21.208 5.8498L21.0733 5.79432L20.938 5.7402L20.8022 5.68743L20.6657 5.63602L20.5287 5.58599L20.3911 5.53734L20.2529 5.49006L20.1142 5.44418L19.975 5.39969L19.8353 5.3566L19.6951 5.31493L19.5544 5.27466L19.4132 5.23582L19.2716 5.1984L19.1295 5.16241L18.9871 5.12786L18.8442 5.09474L18.7009 5.06307L18.5572 5.03286L18.4131 5.0041L18.2687 4.97679L18.124 4.95096L17.9789 4.92659L17.8335 4.90369L17.6878 4.88227L17.5418 4.86233L17.3956 4.84387L17.2491 4.8269L17.1023 4.81142L16.9553 4.79744L16.8082 4.78495L16.6608 4.77396L16.5132 4.76448L16.3655 4.7565L16.2176 4.75002L16.0696 4.74506L15.9215 4.74161L15.7732 4.73968L15.6249 4.73926L15.4765 4.74035L15.328 4.74297L15.1794 4.74711L15.0309 4.75277L14.8823 4.75995L14.7337 4.76866L14.5852 4.77889L14.4366 4.79064L14.2881 4.80392L14.1397 4.81873L13.9913 4.83507L13.843 4.85293L13.6949 4.87231L13.5468 4.89322L13.3989 4.91566L13.2511 4.93962L13.1035 4.96511L12.9561 4.99211L12.8088 5.02064L12.6618 5.05069L12.515 5.08226L12.3684 5.11534L12.2221 5.14995L12.0761 5.18606L11.9303 5.22369L11.7849 5.26283L11.6398 5.30347L11.495 5.34562L11.3505 5.38926L11.2064 5.43441L11.0627 5.48106L10.9193 5.5292L10.7764 5.57882L10.6339 5.62994L10.4918 5.68254L10.3502 5.73661L10.209 5.79216L10.0684 5.84918L9.92819 5.90767L9.78851 5.96762L9.64937 6.02902L9.51076 6.09188L9.3727 6.15619L9.23521 6.22194L9.0983 6.28913L8.96199 6.35776L8.8263 6.4278L8.69122 6.49927L8.55679 6.57216L8.42301 6.64646L8.28991 6.72216L8.15749 6.79925L8.02575 6.87774L7.89474 6.95762L7.76444 7.03887L7.63489 7.12149L7.5061 7.20547L7.37805 7.29082L7.25081 7.37751L7.12435 7.46554L6.9987 7.55492L6.87386 7.64563L6.74988 7.73764L6.62673 7.83098L6.50445 7.92561L6.38305 8.02153L6.26252 8.11875L6.1429 8.21725L6.02421 8.31701L5.90644 8.41803L5.78959 8.52032L5.67372 8.62384L5.5588 8.72859L5.44487 8.83457L5.33193 8.94176L5.21998 9.05016L5.10906 9.15975L4.99917 9.27053L4.8903 9.3825L4.7825 9.49562L4.67577 9.60989L4.5701 9.72531L4.46553 9.84187L4.36206 9.95954L4.25969 10.0783L4.15845 10.1982L4.05835 10.3192L3.9594 10.4413L3.8616 10.5644L3.76495 10.6886L3.66949 10.8139L3.57523 10.9401L3.48217 11.0674L3.39033 11.1957L3.29969 11.325L3.2103 11.4553L3.12214 11.5866L3.03523 11.7188L2.94961 11.852L2.86523 11.9861L2.78215 12.1212L2.70037 12.2571L2.61987 12.394L2.5407 12.5317L2.46285 12.6703L2.38631 12.8098L2.31111 12.9501L2.23728 13.0912L2.1648 13.2332L2.09367 13.376L2.02394 13.5195L1.95558 13.6639L1.8886 13.809L1.82304 13.9549L1.75888 14.1015L1.69612 14.2488L1.63479 14.3969L1.57491 14.5456L1.51645 14.695L1.45943 14.8451L1.40389 14.9958L1.34979 15.1471L1.29715 15.2992L1.246 15.4517L1.19632 15.6049L1.14812 15.7587L1.10143 15.9131L1.05623 16.0679L1.01254 16.2233L0.970355 16.3793L0.929683 16.5357L0.890547 16.6926L0.852934 16.85L0.816857 17.0078L0.782307 17.1661L0.749308 17.3249L0.717866 17.484L0.687968 17.6435L0.659631 17.8034L0.632857 17.9636L0.607647 18.1243L0.584007 18.2852L0.561944 18.4464L0.541458 18.608L0.522564 18.7698L0.505247 18.9319L0.489516 19.0943L0.475381 19.2569L0.462846 19.4197L0.451904 19.5827L0.442564 19.7459L0.434827 19.9092L0.428699 20.0727L0.424176 20.2364L0.421263 20.4002L0.419962 20.564L0.420274 20.728L0.422207 20.8921L0.425753 21.0561L0.430918 21.2203L0.437701 21.3844L0.446113 21.5486L0.456134 21.7127L0.467784 21.8768L0.481049 22.0409L0.495942 22.2049L0.512458 22.3688L0.530593 22.5327L0.550349 22.6964L0.571728 22.86L0.594729 23.0234L0.619355 23.1868L0.645603 23.3499L0.67346 23.5128L0.702936 23.6755L0.734027 23.8379L0.766731 24.0002L0.801067 24.1622L0.836999 24.3239L0.874533 24.4852L0.913686 24.6464L0.954448 24.8071L0.9968 24.9675L1.04075 25.1276L1.08631 25.2873L1.13345 25.4466L1.18219 25.6054L1.23251 25.7639L1.28442 25.9219L1.3379 26.0794L1.39297 26.2365L1.4496 26.3931L1.5078 26.5492L1.56757 26.7047L1.62889 26.8597L1.69177 27.0142L1.7562 27.168L1.82218 27.3213L1.88969 27.474L1.95873 27.626L2.02931 27.7775L2.10141 27.9282L2.17503 28.0783L2.25015 28.2277L2.32678 28.3764L2.40493 28.5245L2.48456 28.6717L2.56566 28.8182L2.64825 28.964L2.7323 29.1089L2.81783 29.2531L2.90483 29.3965L2.99328 29.539L3.08315 29.6807L3.17446 29.8216L3.26721 29.9615L3.36137 30.1006L3.45695 30.2388L3.55393 30.3761L3.65232 30.5124L3.75209 30.6478L3.85321 30.7822L3.95574 30.9157L4.0596 31.0482L4.1648 31.1796L4.27139 31.3101L4.37928 31.4395L4.48849 31.5679L4.59903 31.6952L4.71085 31.8214L4.82398 31.9466L4.93841 32.0707L5.05408 32.1936L5.17101 32.3154L5.28921 32.4361L5.40865 32.5556L5.52933 32.6739L5.65121 32.7911L5.77429 32.9071L5.89859 33.0218L6.02405 33.1354L6.15071 33.2477L6.27852 33.3587L6.40749 33.4686L6.53759 33.5771L6.66878 33.6843L6.80114 33.7903L6.93458 33.895L7.0691 33.9983L7.2047 34.1003L7.34137 34.201L7.47911 34.3003L7.61785 34.3982L7.75764 34.4948L7.89844 34.59L8.04023 34.6838L8.18301 34.7761L8.32677 34.8671L8.47148 34.9566L8.61713 35.0447L8.76372 35.1314L8.91122 35.2165L9.05963 35.3003L9.20894 35.3825L9.35911 35.4632L9.51012 35.5424L9.662 35.6202L9.81472 35.6964L9.96824 35.7711L10.1226 35.8442L10.2777 35.9158L10.4336 35.9859L10.5902 36.0543L10.7476 36.1212L10.9057 36.1866L11.0645 36.2503L11.224 36.3125L11.3842 36.373L11.5451 36.4319L11.7066 36.4892L11.8688 36.5449L12.0315 36.599L12.1949 36.6514L12.3589 36.7022L12.5233 36.7512L12.6884 36.7987L12.8541 36.8445L13.0202 36.8886L13.1868 36.931L13.3539 36.9718L13.5216 37.0108L13.6896 37.0482L13.8581 37.0838L14.027 37.1178L14.1963 37.15L14.3661 37.1805L14.5361 37.2093L14.7066 37.2364L14.8773 37.2617L15.0485 37.2853L15.2199 37.3072L15.3915 37.3273L15.5635 37.3457L15.7358 37.3623L15.9082 37.3772L16.0809 37.3903L16.2537 37.4017L16.4268 37.4113L16.6 37.4191L16.7734 37.4252L16.9469 37.4295L17.1205 37.432L17.2942 37.4328L17.468 37.4317L17.6419 37.4289L17.8158 37.4244L17.9897 37.418L18.1637 37.4099L18.3376 37.3999L18.5115 37.3882L18.6853 37.3748L18.8592 37.3595L19.0329 37.3424L19.2065 37.3236L19.38 37.303L19.5534 37.2806L19.7267 37.2564L19.8997 37.2305L20.0726 37.2027L20.2453 37.1732L20.4177 37.1419L20.59 37.1089L20.762 37.074L20.9337 37.0374L21.105 36.999L21.2762 36.9589L21.4469 36.917L21.6173 36.8733L21.7874 36.8279L21.9571 36.7807L22.1264 36.7317L22.2953 36.681L22.4637 36.6286L22.6317 36.5744L22.7993 36.5185L22.9664 36.4608L23.1329 36.4014L23.299 36.3403L23.4645 36.2775L23.6294 36.213L23.7938 36.1467L23.9576 36.0787L24.1208 36.009L24.2834 35.9377L24.4453 35.8646L24.6066 35.7899L24.7672 35.7135L24.9271 35.6354L25.0863 35.5556L25.2448 35.4742L25.4026 35.3911L25.5596 35.3064L25.7159 35.22L25.8713 35.1321L26.0259 35.0425L26.1798 34.9512L26.3327 34.8584L26.4849 34.764L26.6362 34.6679L26.7865 34.5703L26.936 34.4712L27.0846 34.3704L27.2322 34.2681L27.3789 34.1643L27.5246 34.0588L27.6693 33.9519L27.8131 33.8435L27.9558 33.7335L28.0975 33.622L28.2382 33.5091L28.3778 33.3947L28.5163 33.2787L28.6538 33.1614L28.7901 33.0425L28.9254 32.9223L29.0594 32.8006L29.1924 32.6775L29.3242 32.553L29.4548 32.4271L29.5843 32.2998L29.7125 32.1711L29.8395 32.0411L29.9653 31.9097L30.0898 31.777L30.2131 31.6429L30.3351 31.5076L30.4559 31.3709L30.5753 31.233L30.6934 31.0938L30.8102 30.9533L30.9257 30.8116L31.0398 30.6686L31.1525 30.5244L31.2639 30.379L31.3739 30.2325L31.4825 30.0847L31.5896 29.9358L31.6954 29.7857L31.7997 29.6344L31.9026 29.4821L32.004 29.3286L32.1039 29.1741L32.2024 29.0184L32.2993 28.8617L32.3948 28.704L32.4887 28.5452L32.5811 28.3854L32.672 28.2245L32.7613 28.0627L32.8491 27.9L32.9353 27.7362L33.0199 27.5715L33.1029 27.4059L33.1844 27.2394L33.2642 27.0719L33.3424 26.9036L33.419 26.7344L33.4939 26.5644L33.5672 26.3936L33.6389 26.2219L33.7089 26.0494L33.7772 25.8762L33.8438 25.7022L33.9088 25.5274L33.9721 25.3519L34.0336 25.1757L34.0934 24.9988L34.1516 24.8212L34.208 24.643L34.2626 24.4641L34.3156 24.2845L34.3667 24.1044L34.4162 23.9237L34.4638 23.7424L34.5097 23.5605L34.5539 23.3781L34.5962 23.1952L34.6368 23.0118L34.6756 22.8279L34.7125 22.6435L34.7477 22.4587L34.7811 22.2734L34.8127 22.0878L34.8424 21.9017L34.8703 21.7153L34.8965 21.5285L34.9207 21.3413L34.9432 21.1539L34.9638 20.9661L34.9826 20.7781L34.9995 20.5898L35.0146 20.4013L35.0278 20.2125L35.0392 20.0235L35.0487 19.8343L35.0563 19.645L35.0621 19.4555L35.0661 19.2659L35.0682 19.0761L35.0684 18.8863L35.0668 18.713L35.0668 4.74036L31.5702 4.74036Z" fill="#6792E4"/>
<path d="M33.1603 0L38.9006 4.88994H27.4199L33.1603 0Z" fill="#6792E4"/>
</svg>
