<svg width="764" height="832" viewBox="0 0 764 832" fill="none" xmlns="http://www.w3.org/2000/svg">
<g clip-path="url(#clip0_118_5)">
<path fill-rule="evenodd" clip-rule="evenodd" d="M544.914 241.512L679.281 465.417L680.947 468.139L682.427 470.61L683.881 473.095L685.309 475.592L686.713 478.102L688.091 480.624L689.443 483.158L690.77 485.703L692.07 488.261L693.345 490.83L694.594 493.41L695.816 495.999L697.012 498.6L698.182 501.211L699.325 503.832L700.442 506.463L701.532 509.102L702.596 511.75L703.633 514.408L704.642 517.074L705.625 519.747L706.581 522.43L707.51 525.12L708.412 527.817L709.286 530.52L710.134 533.232L710.953 535.949L711.746 538.672L712.512 541.402L713.249 544.137L713.959 546.878L714.642 549.623L715.297 552.375L715.925 555.13L716.525 557.888L717.097 560.651L717.642 563.419L718.158 566.189L718.647 568.963L719.108 571.739L719.541 574.518L719.947 577.298L720.325 580.082L720.675 582.867L720.997 585.653L721.291 588.441L721.557 591.227L721.797 594.02L722.007 596.806L722.19 599.595L722.345 602.383L722.473 605.172L722.572 607.959L722.644 610.748L722.688 613.528L722.705 616.316L722.694 619.094L722.655 621.872L722.589 624.652L722.495 627.424L722.374 630.192L722.225 632.961L722.048 635.725L721.844 638.484L721.613 641.24L721.355 643.991L721.069 646.737L720.757 649.476L720.417 652.216L720.051 654.943L719.656 657.669L719.236 660.388L718.789 663.098L718.314 665.805L717.813 668.503L717.285 671.197L716.732 673.878L716.151 676.556L715.545 679.223L714.912 681.884L714.252 684.536L713.568 687.177L712.855 689.815L712.119 692.437L711.357 695.052L710.568 697.658L709.755 700.254L708.915 702.841L708.051 705.413L707.161 707.978L706.246 710.532L705.306 713.074L704.342 715.603L703.353 718.121L702.339 720.629L701.299 723.126L700.239 725.605L699.151 728.074L698.04 730.533L696.906 732.973L695.747 735.405L694.565 737.822L693.359 740.225L692.13 742.614L690.879 744.986L689.603 747.348L688.307 749.689L686.984 752.023L685.644 754.333L684.277 756.636L682.888 758.923L681.48 761.188L680.05 763.437L678.594 765.676L677.121 767.894L675.625 770.096L674.107 772.283L672.568 774.452L671.007 776.606L669.429 778.738L667.83 780.852L666.207 782.955L664.569 785.032L662.906 787.096L661.226 789.141L659.528 791.164L657.807 793.172L656.071 795.158L654.312 797.129L652.539 799.075L650.741 801.008L648.931 802.915L647.099 804.807L645.251 806.676L643.38 808.53L641.5 810.356L639.599 812.165L637.68 813.956L635.744 815.723L633.795 817.468L631.824 819.195L629.838 820.901L627.841 822.582L625.823 824.245L623.79 825.885L621.746 827.501L619.68 829.1L617.606 830.671L615.511 832.225L613.407 833.753L611.289 835.259L609.151 836.745L607.003 838.206L604.843 839.644L602.668 841.059L600.479 842.452L598.277 843.823L596.063 845.169L593.84 846.49L591.602 847.789L589.353 849.065L587.09 850.317L584.82 851.544L582.536 852.748L580.24 853.928L577.938 855.082L575.62 856.215L573.292 857.323L570.963 858.403L568.614 859.463L566.258 860.498L563.896 861.506L561.523 862.491L559.146 863.449L556.752 864.385L554.355 865.295L551.95 866.18L549.538 867.039L547.114 867.876L544.689 868.684L542.255 869.469L539.809 870.23L537.365 870.963L534.911 871.672L532.452 872.355L529.989 873.012L527.516 873.645L525.037 874.253L522.561 874.833L520.076 875.389L517.584 875.921L515.093 876.425L512.594 876.905L510.095 877.358L507.589 877.787L505.083 878.188L502.575 878.565L500.059 878.917L497.544 879.242L495.027 879.542L492.512 879.815L489.99 880.064L487.47 880.286L484.948 880.483L482.424 880.655L479.898 880.801L477.379 880.92L474.849 881.015L472.333 881.084L469.807 881.127L467.284 881.145L464.768 881.137L462.244 881.104L459.729 881.046L457.209 880.961L454.698 880.852L452.184 880.717L449.677 880.557L447.165 880.372L444.67 880.162L442.165 879.926L439.67 879.665L437.173 879.379L434.692 879.07L432.204 878.733L429.722 878.372L427.247 877.988L424.783 877.578L422.315 877.144L419.854 876.684L417.405 876.201L414.954 875.693L412.516 875.161L410.079 874.604L407.654 874.024L405.232 873.419L402.82 872.79L400.411 872.137L398.017 871.462L395.624 870.76L393.242 870.038L390.865 869.289L388.503 868.52L386.145 867.725L383.799 866.909L381.459 866.068L379.134 865.206L376.815 864.32L374.501 863.41L372.204 862.479L369.919 861.527L367.639 860.55L365.375 859.553L363.118 858.532L360.874 857.489L358.635 856.423L356.421 855.341L354.207 854.231L352.013 853.103L349.828 851.953L347.658 850.783L345.495 849.589L343.351 848.377L341.213 847.141L339.095 845.888L336.988 844.613L334.898 843.319L332.817 842.003L330.752 840.667L328.701 839.313L326.666 837.939L324.648 836.547L322.639 835.132L320.646 833.698L318.673 832.249L316.711 830.778L314.767 829.29L312.835 827.781L310.925 826.258L309.03 824.716L307.144 823.151L305.284 821.575L303.433 819.976L301.608 818.366L299.789 816.732L297.994 815.084L296.215 813.42L294.456 811.741L292.709 810.04L290.982 808.325L289.275 806.597L287.586 804.853L285.913 803.09L284.26 801.313L282.626 799.522L281.008 797.714L279.409 795.89L277.832 794.056L276.273 792.205L274.734 790.341L273.21 788.459L271.712 786.569L270.227 784.66L268.767 782.742L267.322 780.805L265.902 778.862L264.502 776.906L263.117 774.931L261.755 772.947L260.415 770.952L259.096 768.948L257.793 766.924L256.515 764.894L255.259 762.857L254.02 760.801L252.802 758.734L251.61 756.665L250.436 754.58L249.282 752.484L248.152 750.381L247.043 748.267L245.955 746.143L244.889 744.01L243.844 741.868L242.821 739.717L241.823 737.562L240.843 735.392L239.887 733.219L238.953 731.036L238.04 728.844L237.15 726.645L236.284 724.444L235.438 722.229L234.616 720.012L233.815 717.786L233.039 715.56L232.282 713.317L231.551 711.078L230.843 708.833L230.155 706.575L229.491 704.318L228.85 702.056L228.23 699.785L227.636 697.518L227.063 695.239L226.514 692.961L225.987 690.677L225.483 688.39L225.004 686.104L224.545 683.806L224.111 681.515L223.7 679.218L223.311 676.914L222.947 674.618L222.604 672.312L222.285 670.007L221.989 667.703L221.716 665.392L221.467 663.088L221.24 660.778L221.037 658.471L220.856 656.163L220.698 653.856L220.564 651.547L220.453 649.238L220.364 646.935L220.299 644.629L220.256 642.325L220.237 640.023L220.24 637.723L220.267 635.423L220.316 633.131L220.388 630.834L220.482 628.548L220.6 626.255L220.74 623.976L220.903 621.692L221.088 619.414L221.296 617.144L221.526 614.875L221.779 612.607L222.054 610.347L222.351 608.095L222.671 605.843L223.013 603.598L223.378 601.356L223.763 599.125L224.172 596.894L224.601 594.674L225.053 592.459L225.527 590.25L226.023 588.046L226.539 585.852L227.078 583.665L227.639 581.48L228.219 579.31L228.821 577.146L229.445 574.986L230.091 572.837L230.755 570.699L231.443 568.564L232.15 566.444L232.88 564.326L233.627 562.226L234.397 560.129L235.187 558.043L235.996 555.969L236.827 553.902L237.677 551.846L238.547 549.803L239.438 547.768L240.347 545.744L241.277 543.732L242.225 541.732L243.192 539.743L244.181 537.763L245.187 535.797L246.212 533.843L247.256 531.901L248.321 529.969L249.401 528.054L250.501 526.149L251.619 524.257L252.756 522.376L253.91 520.513L255.082 518.661L256.271 516.822L257.479 514.997L258.705 513.185L259.947 511.388L261.206 509.606L262.482 507.837L263.775 506.083L265.085 504.344L266.411 502.62L267.755 500.909L269.113 499.216L270.488 497.538L271.879 495.873L273.287 494.224L274.708 492.594L276.145 490.977L277.598 489.377L279.066 487.792L280.549 486.225L282.046 484.674L283.558 483.138L285.084 481.621L286.624 480.119L288.179 478.635L289.747 477.167L291.329 475.717L292.925 474.284L294.532 472.87L296.156 471.472L297.789 470.092L299.437 468.73L301.097 467.385L302.769 466.059L304.453 464.752L306.15 463.461L307.859 462.19L309.578 460.936L311.31 459.702L313.052 458.487L314.806 457.289L316.57 456.111L318.345 454.952L320.131 453.811L321.927 452.691L323.733 451.588L325.548 450.506L327.373 449.443L329.208 448.398L331.053 447.374L332.906 446.37L334.768 445.385L336.639 444.419L338.517 443.474L340.405 442.548L342.3 441.643L344.204 440.757L346.114 439.892L348.033 439.046L349.958 438.221L351.892 437.416L353.831 436.632L355.777 435.867L357.73 435.123L359.688 434.4L361.653 433.697L363.623 433.015L365.599 432.353L367.58 431.712L369.567 431.091L371.559 430.491L373.555 429.912L375.556 429.354L377.56 428.816L379.57 428.299L381.583 427.803L383.6 427.328L385.62 426.873L387.644 426.44L389.671 426.027L391.7 425.635L393.732 425.265L395.766 424.915L397.804 424.586L399.842 424.277L401.883 423.99L403.925 423.724L405.968 423.478L408.013 423.254L410.058 423.051L412.105 422.868L414.152 422.706L416.198 422.565L418.247 422.445L420.293 422.346L422.341 422.267L424.387 422.21L426.433 422.173L428.479 422.157L430.521 422.161L432.564 422.187L434.605 422.232L436.644 422.299L438.68 422.386L440.717 422.493L442.748 422.621L444.779 422.77L446.807 422.939L448.83 423.128L450.851 423.338L452.87 423.568L454.885 423.818L456.896 424.089L458.902 424.379L460.904 424.689L462.901 425.019L464.897 425.37L466.883 425.739L468.869 426.13L470.847 426.539L472.82 426.968L474.788 427.417L476.749 427.885L478.705 428.372L480.656 428.879L482.6 429.406L484.537 429.951L486.467 430.515L488.391 431.098L490.308 431.701L492.217 432.322L494.12 432.963L496.013 433.621L497.9 434.298L499.779 434.993L501.65 435.707L503.512 436.44L505.366 437.19L507.211 437.958L509.047 438.744L510.873 439.548L512.693 440.37L514.5 441.209L516.3 442.066L518.09 442.941L519.869 443.832L521.638 444.741L523.398 445.667L525.147 446.609L526.885 447.569L528.613 448.545L530.33 449.538L532.035 450.546L533.73 451.572L535.414 452.613L537.086 453.671L538.745 454.744L540.395 455.834L542.03 456.937L543.656 458.059L545.267 459.194L546.867 460.344L548.455 461.51L550.029 462.691L551.592 463.888L553.14 465.097L554.677 466.322L556.199 467.56L557.708 468.814L559.204 470.081L560.686 471.363L562.154 472.658L563.609 473.965L565.05 475.289L566.475 476.622L567.888 477.971L569.286 479.333L570.669 480.706L572.038 482.093L573.391 483.492L574.73 484.903L576.054 486.327L577.364 487.764L578.658 489.21L579.937 490.67L581.199 492.14L582.448 493.623L583.678 495.115L584.896 496.62L586.096 498.133L587.281 499.66L588.449 501.196L589.601 502.741L590.738 504.298L591.858 505.864L592.962 507.441L594.048 509.026L595.119 510.621L596.173 512.225L597.21 513.838L598.232 515.461L599.235 517.092L600.222 518.731L601.191 520.378L602.144 522.035L603.079 523.699L603.998 525.37L604.898 527.049L605.782 528.735L606.649 530.43L607.497 532.13L608.329 533.838L609.142 535.552L609.938 537.273L610.716 539L611.477 540.734L612.22 542.473L612.944 544.217L613.651 545.968L614.34 547.724L615.011 549.484L615.665 551.251L616.299 553.021L616.916 554.797L617.515 556.576L618.096 558.361L618.658 560.147L619.202 561.94L619.728 563.736L620.236 565.534L620.725 567.337L621.197 569.143L621.649 570.95L622.084 572.761L622.5 574.576L622.898 576.39L623.277 578.207L623.638 580.028L623.981 581.85L624.305 583.673L624.611 585.497L624.898 587.323L625.168 589.15L625.418 590.976L625.65 592.805L625.864 594.634L626.06 596.462L626.237 598.291L626.396 600.12L626.536 601.948L626.658 603.775L626.762 605.603L626.848 607.429L626.915 609.253L626.964 611.078L626.996 612.9L627.008 614.722L627.003 616.539L626.979 618.357L626.938 620.173L626.878 621.985L626.8 623.795L626.705 625.602L626.591 627.406L626.46 629.208L626.31 631.007L626.143 632.8L625.959 634.59L625.756 636.379L625.536 638.16L625.298 639.941L625.043 641.716L624.77 643.486L624.48 645.251L624.172 647.011L623.847 648.768L623.506 650.516L623.146 652.264L622.769 654.003L622.376 655.737L621.966 657.464L621.538 659.189L621.094 660.902L620.634 662.611L620.157 664.315L619.661 666.013L619.151 667.701L618.624 669.382L618.08 671.059L617.521 672.726L616.944 674.388L616.354 676.037L615.745 677.685L615.121 679.323L614.482 680.95L613.826 682.571L613.154 684.184L612.469 685.785L611.766 687.382L611.048 688.97L610.316 690.544L609.569 692.111L608.804 693.674L608.029 695.219L607.234 696.762L606.428 698.291L605.605 699.811L604.77 701.32L603.918 702.82L603.054 704.309L602.173 705.791L601.282 707.256L600.373 708.716L599.453 710.162L598.518 711.599L597.57 713.024L596.607 714.44L595.633 715.842L594.646 717.231L593.645 718.61L592.628 719.981L591.601 721.337L590.561 722.682L589.513 724.009L588.442 725.336L587.369 726.639L586.277 727.938L585.179 729.217L584.062 730.492L582.94 731.747L581.803 732.992L580.655 734.223L579.494 735.445L578.326 736.648L577.139 737.844L575.951 739.019L574.746 740.187L573.531 741.34L572.308 742.478L571.071 743.604L569.825 744.716L568.572 745.812L567.307 746.896L566.029 747.968L564.748 749.02L563.452 750.062L562.15 751.088L560.836 752.102L559.514 753.1L558.184 754.083L556.844 755.053L555.498 756.006L554.138 756.948L552.778 757.87L551.403 758.782L550.025 759.674L548.634 760.557L547.239 761.421L545.834 762.271L544.426 763.104L543.006 763.925L541.582 764.729L540.151 765.517L538.71 766.291L537.264 767.049L535.814 767.791L534.361 768.515L532.892 769.229L531.423 769.924L529.951 770.603L528.468 771.268L526.982 771.916L525.489 772.549L523.995 773.165L522.489 773.767L520.987 774.351L519.475 774.92L517.963 775.472L516.44 776.01L514.919 776.53L513.389 777.035L511.861 777.524L510.321 777.998L508.789 778.453L507.242 778.895L505.698 779.319L504.151 779.727L502.601 780.119L501.051 780.495L499.493 780.855L497.935 781.199L496.375 781.526L494.814 781.837L493.25 782.133L491.685 782.411L490.116 782.674L488.549 782.92L486.979 783.151L485.409 783.365L483.839 783.563L482.272 783.744L480.695 783.91L479.123 784.059L477.552 784.193L475.979 784.31L474.403 784.411L472.836 784.496L471.262 784.565L469.69 784.618L468.124 784.655L466.551 784.677L464.981 784.682L463.421 784.671L461.852 784.644L460.287 784.602L458.728 784.544L457.165 784.469L455.61 784.38L454.048 784.274L452.501 784.153L450.947 784.016L449.401 783.864L447.853 783.696L446.315 783.513L444.771 783.314L443.237 783.1L441.707 782.871L440.176 782.626L438.651 782.366L437.131 782.091L435.615 781.801L434.098 781.495L432.592 781.176L431.085 780.84L429.591 780.491L428.094 780.126L426.603 779.745L425.124 779.352L423.64 778.943L422.167 778.52L420.701 778.083L419.233 777.629L417.78 777.164L416.329 776.683L414.884 776.188L413.443 775.679L412.011 775.157L410.585 774.62L409.167 774.07L407.756 773.506L406.348 772.927L404.951 772.337L403.56 771.732L402.173 771.112L400.798 770.481L399.428 769.836L398.067 769.178L396.713 768.508L395.368 767.824L394.029 767.127L392.697 766.417L391.378 765.695L390.067 764.962L388.759 764.213L387.466 763.455L386.177 762.682L384.898 761.899L383.629 761.103L382.368 760.295L381.117 759.476L379.88 758.647L378.643 757.802L377.422 756.949L376.208 756.083L375.005 755.207L373.808 754.317L372.627 753.419L371.456 752.512L370.29 751.589L369.138 750.658L367.994 749.716L366.861 748.763L365.742 747.802L364.629 746.828L363.528 745.845L362.441 744.855L361.361 743.851L360.291 742.836L359.236 741.816L358.192 740.786L357.157 739.744L356.137 738.697L355.123 737.636L354.123 736.568L353.135 735.492L352.156 734.403L351.196 733.314L350.239 732.209L349.302 731.102L348.37 729.979L347.455 728.856L346.549 727.72L345.657 726.578L344.775 725.426L343.91 724.273L343.051 723.103L342.209 721.934L341.377 720.754L340.561 719.572L339.754 718.376L338.961 717.177L338.179 715.968L337.416 714.762L336.659 713.54L335.917 712.314L335.189 711.085L334.473 709.849L333.771 708.608L333.08 707.358L332.404 706.106L331.742 704.849L331.092 703.587L330.454 702.317L329.831 701.044L329.221 699.767L328.624 698.485L328.04 697.195L327.47 695.907L326.913 694.611L326.371 693.314L325.84 692.008L325.326 690.705L324.822 689.393L324.334 688.082L323.857 686.762L323.397 685.445L322.949 684.121L322.515 682.798L322.093 681.464L321.688 680.142L321.292 678.801L320.914 677.469L320.548 676.133L320.196 674.795L319.856 673.451L319.533 672.11L319.221 670.764L318.925 669.423L318.64 668.072L318.371 666.726L318.115 665.379L317.873 664.026L317.644 662.676L317.43 661.329L317.228 659.974L317.041 658.627L316.867 657.273L316.707 655.921L316.561 654.571L316.428 653.221L316.309 651.872L316.204 650.519L316.111 649.17L316.034 647.826L315.968 646.476L315.917 645.132L315.879 643.787L315.855 642.444L315.844 641.102L315.847 639.765L315.863 638.423L315.892 637.092L315.935 635.755L315.991 634.426L316.06 633.095L316.142 631.771L316.237 630.447L316.346 629.122L316.467 627.809L316.603 626.49L316.75 625.18L316.911 623.873L317.084 622.57L317.271 621.266L317.47 619.966L317.682 618.676L317.907 617.386L318.144 616.098L318.394 614.816L318.656 613.538L318.931 612.267L319.218 611.001L319.518 609.734L319.83 608.478L320.155 607.22L320.491 605.975L320.839 604.733L321.2 603.492L321.573 602.259L321.957 601.034L322.353 599.811L322.762 598.593L323.181 597.386L323.613 596.18L324.056 594.982L324.51 593.793L324.977 592.605L325.452 591.43L325.942 590.255L326.442 589.088L326.952 587.93L327.474 586.778L328.006 585.634L328.55 584.494L329.104 583.363L329.668 582.241L330.245 581.122L330.831 580.015L331.427 578.914L332.034 577.819L332.651 576.734L333.279 575.655L333.916 574.586L334.563 573.523L335.22 572.47L335.887 571.423L336.564 570.385L337.251 569.357L337.947 568.335L338.651 567.324L339.367 566.32L340.089 565.326L340.823 564.339L341.564 563.364L342.315 562.395L343.076 561.436L343.844 560.486L344.62 559.546L345.406 558.614L346.199 557.692L347.002 556.779L347.812 555.876L348.631 554.983L349.457 554.1L350.292 553.225L351.134 552.36L351.984 551.505L352.841 550.662L353.706 549.827L354.578 549.002L355.457 548.187L356.344 547.383L357.238 546.588L358.138 545.805L359.044 545.032L359.959 544.268L360.879 543.515L361.807 542.773L362.739 542.042L363.68 541.32L364.624 540.61L365.575 539.91L366.534 539.22L367.496 538.543L368.465 537.875L369.44 537.218L370.42 536.572L371.405 535.937L372.395 535.314L373.39 534.701L374.39 534.099L375.395 533.509L376.405 532.93L377.42 532.361L378.439 531.803L379.461 531.258L380.49 530.722L381.521 530.199L382.556 529.687L383.597 529.186L384.639 528.697L385.687 528.218L386.736 527.752L387.792 527.295L388.847 526.852L389.908 526.42L390.971 525.998L392.037 525.589L393.106 525.191L394.179 524.804L395.253 524.429L396.329 524.066L397.408 523.713L398.49 523.372L399.573 523.043L400.657 522.726L401.746 522.42L402.835 522.125L403.924 521.843L405.017 521.571L406.109 521.312L407.205 521.063L408.301 520.826L409.397 520.601L410.495 520.387L411.593 520.185L412.693 519.994L413.792 519.815L414.892 519.648L415.992 519.491L417.095 519.346L418.194 519.213L419.294 519.091L420.394 518.981L421.496 518.881L422.594 518.793L423.695 518.717L424.793 518.652L425.891 518.598L426.988 518.555L428.085 518.524L429.179 518.504L430.273 518.495L431.366 518.497L432.458 518.51L433.546 518.535L434.635 518.57L435.721 518.617L436.805 518.674L437.889 518.743L438.968 518.822L440.047 518.913L441.124 519.014L442.196 519.125L443.266 519.248L444.337 519.382L445.402 519.525L446.464 519.68L447.526 519.845L448.583 520.021L449.636 520.207L450.686 520.404L451.734 520.611L452.777 520.828L453.818 521.057L454.853 521.294L455.887 521.543L456.916 521.801L457.941 522.069L458.962 522.347L459.979 522.636L460.993 522.934L462.001 523.242L463.005 523.56L464.003 523.887L464.999 524.225L465.99 524.571L466.973 524.927L467.956 525.293L468.93 525.668L469.9 526.052L470.866 526.447L471.827 526.85L472.78 527.261L473.729 527.682L474.675 528.113L475.613 528.552L476.544 528.999L477.471 529.456L478.392 529.921L479.306 530.395L480.216 530.877L481.118 531.367L482.016 531.867L482.906 532.374L483.791 532.891L484.669 533.414L485.538 533.945L486.405 534.487L487.262 535.033L488.115 535.59L488.958 536.153L489.796 536.723L490.629 537.303L491.452 537.889L492.269 538.482L493.078 539.083L493.882 539.692L494.675 540.305L495.467 540.93L496.245 541.557L497.02 542.195L497.785 542.836L498.544 543.486L499.295 544.143L500.039 544.806L500.773 545.474L501.502 546.15L502.221 546.831L502.935 547.52L503.636 548.212L504.334 548.913L505.021 549.619L505.701 550.33L506.374 551.049L507.037 551.77L507.692 552.499L508.341 553.234L508.978 553.971L509.61 554.716L510.232 555.465L510.844 556.218L511.45 556.979L512.048 557.743L512.636 558.512L513.215 559.285L513.785 560.062L514.349 560.846L514.9 561.63L515.447 562.424L515.983 563.217L516.509 564.016L517.028 564.819L517.539 565.628L518.039 566.437L518.53 567.251L519.013 568.068L519.488 568.891L519.952 569.713L520.409 570.543L520.854 571.371L521.294 572.208L521.722 573.042L522.142 573.883L522.553 574.725L522.955 575.571L523.347 576.416L523.731 577.267L524.105 578.121L524.471 578.976L524.826 579.83L525.173 580.691L525.51 581.549L525.84 582.413L526.159 583.276L526.469 584.143L526.769 585.009L527.062 585.878L527.344 586.749L527.617 587.619L527.881 588.491L528.136 589.365L528.382 590.239L528.618 591.113L528.846 591.99L529.064 592.866L529.273 593.743L529.472 594.62L529.664 595.498L529.845 596.377L530.018 597.252L530.182 598.135L530.335 599.011L530.48 599.888L530.617 600.767L530.744 601.645L530.862 602.522L530.97 603.396L531.071 604.275L531.162 605.149L531.244 606.023L531.317 606.896L531.382 607.767L531.437 608.641L531.483 609.509L531.521 610.381L531.549 611.245L531.57 612.111L531.581 612.98L531.583 613.841L531.577 614.7L531.563 615.561L531.539 616.418L531.507 617.276L531.467 618.128L531.418 618.979L531.361 619.828L531.294 620.676L531.22 621.517L531.137 622.362L531.047 623.2L530.947 624.037L530.839 624.872L530.724 625.702L530.6 626.531L530.468 627.354L530.328 628.179L530.179 628.996L530.023 629.811L529.859 630.625L529.687 631.433L529.507 632.24L529.319 633.041L529.124 633.84L528.921 634.634L528.71 635.424L528.492 636.212L528.265 636.997L528.033 637.774L527.792 638.551L527.544 639.322L527.288 640.088L527.026 640.851L526.755 641.611L526.479 642.362L526.194 643.114L525.903 643.859L525.605 644.598L525.3 645.333L524.987 646.066L524.67 646.79L524.343 647.513L524.011 648.23L523.673 648.941L523.327 649.647L522.976 650.348L522.617 651.047L522.254 651.735L521.882 652.423L521.506 653.102L521.121 653.779L520.732 654.448L520.337 655.112L519.936 655.77L519.529 656.423L519.116 657.071L518.697 657.714L518.272 658.35L517.843 658.979L517.407 659.604L516.967 660.222L516.519 660.836L516.068 661.443L515.611 662.044L515.15 662.637L514.681 663.228L514.209 663.81L513.732 664.385L513.25 664.955L512.763 665.52L512.272 666.077L511.774 666.63L511.274 667.174L510.769 667.712L510.26 668.244L509.744 668.772L509.226 669.29L508.705 669.801L508.176 670.309L507.645 670.809L507.11 671.302L506.573 671.786L506.028 672.268L505.484 672.739L504.931 673.207L504.379 673.666L503.821 674.119L503.261 674.564L502.698 675.003L502.129 675.437L501.559 675.861L500.984 676.281L500.409 676.692L499.829 677.097L499.246 677.495L498.659 677.886L498.072 678.27L497.48 678.647L496.89 679.016L496.291 679.381L495.692 679.737L495.092 680.086L494.489 680.428L493.885 680.762L493.277 681.09L492.666 681.413L492.056 681.726L491.443 682.033L490.827 682.333L490.211 682.625L489.59 682.912L488.973 683.19L488.351 683.461L487.727 683.726L487.103 683.983L486.476 684.235L485.849 684.478L485.223 684.714L484.594 684.942L483.963 685.165L483.332 685.381L482.702 685.589L482.067 685.79L481.437 685.983L480.801 686.172L480.167 686.351L479.533 686.524L478.899 686.69L478.263 686.85L477.627 687.002L476.992 687.147L476.356 687.286L475.721 687.418L475.085 687.542L474.449 687.66L473.813 687.771L473.18 687.875L472.545 687.972L471.908 688.063L471.279 688.146L470.644 688.224L470.01 688.294L469.38 688.358L468.75 688.415L468.12 688.465L467.489 688.508L466.86 688.545L466.237 688.576L465.611 688.6L464.985 688.617L464.36 688.629L463.737 688.633L463.119 688.631L462.498 688.622L461.882 688.607L461.265 688.586L460.652 688.56L460.038 688.526L459.426 688.486L458.818 688.44L458.209 688.388L457.606 688.329L457.003 688.265L456.402 688.194L455.802 688.118L455.205 688.035L454.612 687.947L454.021 687.853L453.428 687.752L452.841 687.646L452.257 687.534L451.675 687.417L451.094 687.293L450.518 687.165L449.945 687.031L449.372 686.89L448.804 686.745L448.238 686.594L447.677 686.438L447.115 686.275L446.559 686.109L446.005 685.936L445.455 685.759L444.908 685.576L444.365 685.388L443.822 685.194L443.283 684.996L442.751 684.793L442.221 684.585L441.692 684.372L441.17 684.155L440.65 683.932L440.133 683.705L439.621 683.473L439.11 683.236L438.605 682.995L438.103 682.748L437.606 682.499L437.113 682.245L436.622 681.985L436.135 681.722L435.655 681.456L435.175 681.183L434.7 680.906L434.232 680.627L433.765 680.343L433.304 680.055L432.846 679.764L432.393 679.468L431.944 679.168L431.498 678.865L431.058 678.557L430.623 678.248L430.19 677.933L429.762 677.615L429.34 677.294L428.922 676.971L428.507 676.642L428.098 676.311L427.691 675.976L427.292 675.639L426.898 675.3L426.506 674.956L426.117 674.608L425.737 674.26L425.358 673.906L424.986 673.553L424.618 673.194L424.255 672.833L423.896 672.471L423.543 672.106L423.194 671.737L422.849 671.366L422.51 670.994L422.174 670.617L421.846 670.242L421.521 669.862L421.199 669.478L420.885 669.096L420.576 668.711L420.27 668.323L419.969 667.932L419.673 667.541L419.382 667.147L419.097 666.754L418.816 666.356L418.541 665.96L418.269 665.559L418.003 665.158L417.742 664.756L417.485 664.352L417.234 663.948L416.988 663.542L416.636 662.955L416.213 662.25L415.871 661.682L359.876 695.285L360.37 696.139L360.962 697.136L361.563 698.128L362.176 699.115L362.8 700.098L363.434 701.075L364.08 702.047L364.734 703.012L365.401 703.974L366.078 704.93L366.765 705.879L367.463 706.822L368.172 707.76L368.89 708.691L369.618 709.615L370.359 710.537L371.109 711.449L371.867 712.353L372.636 713.252L373.417 714.146L374.206 715.03L375.006 715.909L375.815 716.781L376.634 717.644L377.463 718.501L378.302 719.351L379.15 720.192L380.007 721.025L380.874 721.852L381.751 722.67L382.637 723.48L383.531 724.281L384.435 725.075L385.348 725.861L386.271 726.639L387.202 727.407L388.141 728.166L389.089 728.916L390.047 729.659L391.013 730.392L391.987 731.116L392.97 731.831L393.961 732.537L394.961 733.233L395.968 733.92L396.983 734.597L398.007 735.264L399.039 735.922L400.077 736.57L401.124 737.209L402.178 737.837L403.24 738.454L404.309 739.061L405.386 739.659L406.469 740.246L407.56 740.822L408.659 741.388L409.763 741.944L410.875 742.488L411.992 743.021L413.117 743.544L414.248 744.056L415.385 744.556L416.53 745.045L417.679 745.524L418.835 745.991L419.997 746.447L421.165 746.89L422.338 747.323L423.516 747.743L424.701 748.153L425.891 748.55L427.087 748.937L428.287 749.31L429.491 749.672L430.701 750.021L431.916 750.359L433.136 750.684L434.359 750.998L435.587 751.298L436.82 751.587L438.058 751.864L439.297 752.127L440.542 752.378L441.791 752.617L443.044 752.843L444.298 753.057L445.557 753.257L446.819 753.445L448.085 753.62L449.353 753.781L450.625 753.931L451.898 754.067L453.175 754.19L454.454 754.3L455.735 754.397L457.019 754.481L458.304 754.551L459.592 754.609L460.881 754.653L462.173 754.684L463.464 754.701L464.759 754.705L466.055 754.696L467.351 754.673L468.647 754.637L469.947 754.587L471.247 754.524L472.546 754.447L473.845 754.357L475.146 754.254L476.446 754.136L477.747 754.005L479.047 753.861L480.347 753.703L481.647 753.531L482.946 753.346L484.245 753.146L485.543 752.933L486.838 752.707L488.134 752.467L489.429 752.212L490.721 751.945L492.014 751.663L493.303 751.369L494.59 751.06L495.877 750.738L497.161 750.401L498.443 750.052L499.722 749.689L500.998 749.312L502.272 748.921L503.544 748.516L504.811 748.098L506.077 747.667L507.339 747.221L508.597 746.763L509.853 746.29L511.104 745.804L512.351 745.305L513.595 744.792L514.834 744.265L516.069 743.726L517.301 743.173L518.527 742.606L519.747 742.027L520.966 741.433L522.177 740.827L523.384 740.207L524.586 739.574L525.782 738.928L526.973 738.268L528.157 737.596L529.336 736.911L530.511 736.213L531.677 735.502L532.839 734.777L533.994 734.04L535.141 733.291L536.284 732.528L537.418 731.754L538.546 730.966L539.668 730.165L540.782 729.352L541.889 728.527L542.987 727.69L544.079 726.84L545.164 725.978L546.239 725.103L547.308 724.216L548.367 723.318L549.419 722.408L550.463 721.485L551.499 720.551L552.525 719.604L553.543 718.647L554.551 717.679L555.552 716.697L556.543 715.704L557.525 714.701L558.497 713.687L559.46 712.66L560.413 711.623L561.356 710.575L562.29 709.516L563.215 708.445L564.129 707.365L565.032 706.274L565.925 705.172L566.807 704.06L567.68 702.937L568.542 701.804L569.393 700.661L570.233 699.508L571.062 698.344L571.88 697.17L572.686 695.989L573.482 694.796L574.267 693.594L575.039 692.383L575.8 691.162L576.549 689.932L577.287 688.693L578.012 687.445L578.725 686.188L579.426 684.923L580.115 683.649L580.792 682.365L581.456 681.074L582.108 679.775L582.747 678.468L583.373 677.151L583.987 675.827L584.588 674.496L585.175 673.158L585.75 671.812L586.312 670.457L586.86 669.095L587.395 667.727L587.916 666.352L588.424 664.97L588.919 663.581L589.399 662.185L589.866 660.783L590.319 659.374L590.759 657.96L591.184 656.539L591.595 655.112L591.993 653.68L592.377 652.242L592.745 650.798L593.1 649.348L593.44 647.894L593.766 646.436L594.078 644.97L594.374 643.501L594.657 642.027L594.924 640.549L595.177 639.066L595.415 637.579L595.638 636.088L595.847 634.593L596.04 633.095L596.218 631.592L596.381 630.087L596.53 628.578L596.663 627.065L596.781 625.55L596.884 624.032L596.972 622.511L597.044 620.987L597.101 619.462L597.142 617.933L597.169 616.404L597.18 614.872L597.175 613.338L597.155 611.802L597.119 610.265L597.068 608.728L597.001 607.188L596.919 605.648L596.821 604.107L596.707 602.565L596.579 601.023L596.434 599.48L596.273 597.938L596.097 596.395L595.905 594.852L595.698 593.31L595.474 591.769L595.235 590.228L594.98 588.687L594.71 587.147L594.424 585.61L594.122 584.073L593.804 582.537L593.471 581.003L593.122 579.472L592.757 577.941L592.377 576.413L591.981 574.887L591.569 573.364L591.141 571.843L590.699 570.325L590.24 568.811L589.765 567.299L589.275 565.789L588.77 564.284L588.249 562.783L587.712 561.285L587.16 559.791L586.593 558.301L586.01 556.816L585.411 555.334L584.797 553.858L584.168 552.386L583.524 550.919L582.864 549.456L582.189 548L581.5 546.549L580.795 545.103L580.074 543.662L579.339 542.228L578.589 540.8L577.824 539.377L577.044 537.961L576.249 536.552L575.439 535.15L574.615 533.754L573.776 532.366L572.923 530.984L572.054 529.609L571.172 528.242L570.275 526.883L569.363 525.532L568.438 524.188L567.498 522.853L566.544 521.525L565.576 520.206L564.594 518.896L563.598 517.594L562.589 516.302L561.565 515.017L560.528 513.743L559.477 512.478L558.413 511.221L557.336 509.975L556.244 508.738L555.14 507.512L554.023 506.295L552.893 505.088L551.749 503.892L550.594 502.706L549.425 501.531L548.243 500.366L547.049 499.213L545.843 498.07L544.623 496.939L543.392 495.818L542.149 494.71L540.893 493.613L539.626 492.527L538.347 491.454L537.057 490.392L535.754 489.343L534.44 488.306L533.115 487.281L531.778 486.268L530.43 485.269L529.072 484.282L527.702 483.308L526.322 482.347L524.931 481.399L523.53 480.464L522.118 479.543L520.696 478.636L519.264 477.741L517.822 476.861L516.37 475.994L514.908 475.142L513.436 474.303L511.956 473.478L510.466 472.668L508.966 471.873L507.458 471.092L505.941 470.326L504.414 469.573L502.879 468.837L501.336 468.115L499.785 467.408L498.226 466.716L496.658 466.039L495.082 465.378L493.499 464.732L491.908 464.102L490.31 463.488L488.704 462.888L487.091 462.305L485.471 461.739L483.845 461.187L482.212 460.652L480.573 460.133L478.926 459.63L477.274 459.143L475.616 458.674L473.951 458.22L472.282 457.783L470.607 457.363L468.926 456.959L467.241 456.572L465.55 456.201L463.854 455.848L462.153 455.511L460.448 455.193L458.739 454.891L457.026 454.605L455.308 454.338L453.586 454.088L451.861 453.854L450.133 453.639L448.401 453.44L446.667 453.259L444.929 453.096L443.187 452.95L441.444 452.823L439.698 452.712L437.95 452.619L436.2 452.544L434.448 452.487L432.694 452.447L430.938 452.427L429.181 452.423L427.423 452.437L425.664 452.47L423.904 452.52L422.144 452.588L420.382 452.674L418.622 452.779L416.86 452.901L415.098 453.042L413.339 453.201L411.577 453.378L409.817 453.573L408.059 453.786L406.3 454.017L404.543 454.267L402.788 454.535L401.034 454.821L399.281 455.125L397.531 455.447L395.783 455.787L394.036 456.146L392.293 456.523L390.552 456.917L388.814 457.331L387.078 457.762L385.347 458.211L383.618 458.678L381.894 459.164L380.173 459.667L378.456 460.189L376.743 460.728L375.034 461.286L373.33 461.862L371.63 462.455L369.936 463.066L368.247 463.695L366.563 464.342L364.884 465.007L363.211 465.69L361.543 466.39L359.882 467.108L358.227 467.844L356.578 468.597L354.936 469.367L353.3 470.155L351.671 470.961L350.05 471.784L348.436 472.624L346.828 473.482L345.229 474.357L343.637 475.248L342.054 476.157L340.478 477.084L338.911 478.026L337.353 478.986L335.802 479.962L334.262 480.955L332.729 481.965L331.206 482.991L329.692 484.034L328.188 485.093L326.695 486.169L325.21 487.261L323.735 488.369L322.271 489.493L320.818 490.633L319.374 491.788L317.942 492.96L316.52 494.147L315.109 495.35L313.71 496.568L312.322 497.802L310.945 499.051L309.581 500.315L308.228 501.594L306.887 502.888L305.558 504.197L304.242 505.521L302.938 506.859L301.647 508.212L300.368 509.579L299.103 510.96L297.85 512.356L296.612 513.766L295.386 515.19L294.174 516.627L292.975 518.078L291.791 519.542L290.62 521.02L289.463 522.512L288.321 524.016L287.194 525.533L286.08 527.063L284.982 528.606L283.898 530.162L282.829 531.729L281.775 533.309L280.736 534.902L279.713 536.505L278.705 538.121L277.713 539.75L276.737 541.389L275.777 543.04L274.832 544.702L273.904 546.375L272.991 548.059L272.096 549.754L271.217 551.459L270.354 553.175L269.508 554.901L268.678 556.638L267.866 558.384L267.071 560.141L266.293 561.906L265.532 563.682L264.789 565.466L264.062 567.26L263.354 569.063L262.663 570.875L261.99 572.695L261.335 574.523L260.698 576.36L260.078 578.205L259.477 580.058L258.894 581.919L258.329 583.787L257.784 585.662L257.256 587.545L256.746 589.435L256.256 591.332L255.784 593.235L255.331 595.146L254.897 597.061L254.482 598.983L254.086 600.911L253.709 602.845L253.351 604.784L253.012 606.729L252.693 608.678L252.393 610.633L252.112 612.592L251.851 614.556L251.609 616.524L251.387 618.497L251.184 620.473L251.001 622.454L250.838 624.437L250.695 626.424L250.572 628.414L250.468 630.408L250.384 632.404L250.321 634.402L250.277 636.403L250.252 638.406L250.249 640.411L250.265 642.419L250.301 644.427L250.358 646.436L250.435 648.447L250.531 650.46L250.648 652.473L250.785 654.485L250.943 656.499L251.12 658.512L251.318 660.524L251.537 662.538L251.775 664.552L252.033 666.563L252.312 668.575L252.611 670.584L252.931 672.593L253.271 674.6L253.63 676.605L254.011 678.608L254.412 680.61L254.832 682.609L255.273 684.605L255.734 686.598L256.216 688.589L256.718 690.576L257.239 692.559L257.781 694.54L258.343 696.517L258.925 698.488L259.527 700.456L260.149 702.42L260.791 704.38L261.453 706.333L262.135 708.282L262.837 710.226L263.558 712.164L264.3 714.097L265.06 716.023L265.841 717.944L266.642 719.858L267.462 721.766L268.301 723.667L269.16 725.561L270.038 727.448L270.936 729.327L271.852 731.199L272.788 733.063L273.743 734.919L274.718 736.768L275.711 738.607L276.723 740.438L277.755 742.261L278.804 744.075L279.873 745.878L280.959 747.673L282.066 749.459L283.19 751.235L284.332 753L285.493 754.756L286.672 756.501L287.868 758.236L289.084 759.961L290.316 761.673L291.566 763.375L292.835 765.066L294.12 766.745L295.424 768.413L296.744 770.068L298.082 771.712L299.437 773.343L300.809 774.963L302.197 776.569L303.603 778.162L305.025 779.743L306.464 781.311L307.92 782.865L309.391 784.406L310.879 785.933L312.382 787.446L313.902 788.945L315.438 790.43L316.989 791.9L318.555 793.356L320.137 794.798L321.734 796.224L323.346 797.635L324.973 799.031L326.615 800.413L328.272 801.778L329.943 803.127L331.628 804.461L333.328 805.779L335.042 807.08L336.769 808.365L338.51 809.634L340.266 810.886L342.034 812.121L343.815 813.339L345.609 814.54L347.417 815.724L349.237 816.891L351.07 818.039L352.916 819.171L354.773 820.284L356.642 821.379L358.524 822.457L360.417 823.516L362.322 824.557L364.238 825.579L366.165 826.583L368.104 827.568L370.053 828.534L372.012 829.48L373.982 830.408L375.963 831.317L377.953 832.206L379.954 833.076L381.964 833.926L383.983 834.756L386.012 835.566L388.05 836.357L390.098 837.127L392.153 837.877L394.217 838.607L396.29 839.317L398.37 840.007L400.458 840.675L402.555 841.323L404.659 841.95L406.77 842.556L408.888 843.141L411.013 843.706L413.145 844.249L415.283 844.771L417.428 845.271L419.578 845.751L421.735 846.208L423.897 846.645L426.065 847.059L428.237 847.452L430.415 847.823L432.597 848.172L434.784 848.5L436.976 848.806L439.171 849.089L441.372 849.35L443.573 849.59L445.78 849.807L447.99 850.002L450.203 850.174L452.418 850.324L454.637 850.452L456.858 850.558L459.08 850.64L461.304 850.7L463.531 850.739L465.758 850.754L467.988 850.746L470.217 850.717L472.449 850.664L474.679 850.589L476.911 850.491L479.143 850.37L481.374 850.226L483.605 850.06L485.836 849.871L488.066 849.658L490.294 849.424L492.521 849.166L494.748 848.885L496.972 848.582L499.193 848.257L501.414 847.907L503.631 847.536L505.846 847.141L508.058 846.724L510.267 846.284L512.472 845.821L514.674 845.335L516.872 844.827L519.066 844.295L521.256 843.741L523.441 843.165L525.621 842.566L527.798 841.944L529.967 841.3L532.132 840.634L534.292 839.944L536.445 839.232L538.591 838.499L540.733 837.741L542.868 836.962L544.995 836.161L547.116 835.338L549.229 834.492L551.334 833.625L553.432 832.735L555.523 831.823L557.605 830.889L559.679 829.934L561.743 828.956L563.799 827.958L565.847 826.937L567.885 825.894L569.913 824.83L571.932 823.745L573.941 822.639L575.94 821.511L577.928 820.362L579.905 819.192L581.872 818.001L583.829 816.789L585.773 815.557L587.707 814.304L589.628 813.03L591.538 811.735L593.436 810.421L595.32 809.086L597.194 807.73L599.055 806.356L600.901 804.961L602.736 803.545L604.556 802.111L606.364 800.657L608.158 799.183L609.937 797.691L611.703 796.178L613.455 794.647L615.191 793.097L616.913 791.528L618.621 789.94L620.312 788.334L621.989 786.71L623.651 785.068L625.296 783.407L626.926 781.728L628.539 780.032L630.137 778.317L631.718 776.585L633.282 774.837L634.83 773.07L636.361 771.287L637.875 769.487L639.371 767.67L640.849 765.837L642.311 763.987L643.754 762.121L645.179 760.239L646.586 758.342L647.976 756.428L649.345 754.5L650.697 752.554L652.03 750.595L653.343 748.621L654.638 746.632L655.913 744.627L657.169 742.61L658.406 740.577L659.622 738.53L660.819 736.47L661.995 734.396L663.151 732.308L664.288 730.208L665.403 728.094L666.497 725.967L667.572 723.828L668.624 721.676L669.657 719.512L670.668 717.336L671.658 715.148L672.626 712.948L673.572 710.737L674.498 708.514L675.401 706.281L676.282 704.038L677.141 701.783L677.979 699.517L678.794 697.242L679.586 694.957L680.357 692.662L681.104 690.358L681.829 688.044L682.531 685.722L683.21 683.39L683.867 681.05L684.499 678.702L685.109 676.346L685.695 673.981L686.259 671.61L686.799 669.23L687.316 666.843L687.808 664.45L688.278 662.05L688.723 659.643L689.145 657.23L689.542 654.81L689.915 652.386L690.265 649.955L690.591 647.52L690.892 645.078L691.169 642.633L691.422 640.182L691.65 637.728L691.855 635.27L692.034 632.808L692.189 630.341L692.32 627.872L692.426 625.399L692.507 622.924L692.564 620.447L692.596 617.966L692.604 615.484L692.586 613L692.544 610.514L692.477 608.027L692.385 605.539L692.269 603.05L692.127 600.56L691.961 598.069L691.769 595.58L691.553 593.09L691.312 590.6L691.046 588.112L690.755 585.623L690.438 583.137L690.098 580.652L689.732 578.168L689.341 575.686L688.925 573.206L688.485 570.73L688.02 568.255L687.53 565.784L687.014 563.316L686.474 560.851L685.909 558.39L685.32 555.933L684.706 553.481L684.067 551.032L683.403 548.589L682.715 546.15L682.002 543.717L681.265 541.289L680.503 538.867L679.717 536.451L678.906 534.042L678.071 531.638L677.211 529.242L676.328 526.852L675.42 524.47L674.489 522.095L673.532 519.728L672.552 517.369L671.549 515.019L670.521 512.677L669.47 510.344L668.395 508.019L667.296 505.704L666.174 503.398L665.028 501.103L663.859 498.817L662.667 496.541L661.452 494.276L660.213 492.022L658.952 489.779L657.667 487.546L656.361 485.326L655.031 483.117L653.679 480.919L652.304 478.734L650.908 476.562L649.488 474.402L648.047 472.255L646.584 470.121L645.098 468L643.592 465.893L642.064 463.8L640.514 461.721L638.943 459.656L637.35 457.605L635.737 455.569L634.103 453.548L632.447 451.542L630.771 449.552L629.075 447.578L627.359 445.618L625.622 443.675L623.866 441.749L622.089 439.839L620.292 437.945L618.476 436.068L616.641 434.209L614.786 432.367L612.913 430.542L611.02 428.735L609.109 426.945L607.179 425.175L605.231 423.422L603.263 421.688L601.279 419.972L599.277 418.276L597.257 416.598L595.218 414.94L593.164 413.302L591.092 411.683L589.003 410.083L586.897 408.504L584.775 406.946L582.636 405.407L580.481 403.889L578.311 402.392L576.125 400.917L573.923 399.462L571.705 398.028L569.472 396.616L567.226 395.226L564.963 393.857L562.687 392.511L560.395 391.186L558.09 389.884L555.772 388.604L553.439 387.347L551.093 386.112L548.734 384.902L546.362 383.713L543.977 382.548L541.58 381.406L539.171 380.288L536.749 379.193L534.315 378.122L531.87 377.076L529.414 376.052L526.947 375.054L524.468 374.079L521.979 373.13L519.48 372.205L516.97 371.304L514.45 370.428L511.921 369.577L509.383 368.751L506.835 367.95L504.278 367.175L501.713 366.425L499.139 365.7L496.557 365.001L493.967 364.328L491.37 363.68L488.764 363.059L486.152 362.463L483.533 361.893L480.908 361.35L478.276 360.833L475.637 360.342L472.993 359.877L470.344 359.439L467.688 359.028L465.028 358.643L462.363 358.285L459.694 357.953L457.02 357.649L454.342 357.371L451.661 357.121L448.976 356.897L446.287 356.7L443.596 356.531L440.903 356.388L438.206 356.273L435.508 356.185L432.808 356.124L430.106 356.09L427.402 356.085L424.699 356.106L421.993 356.155L419.288 356.231L416.583 356.334L413.877 356.466L411.172 356.624L408.467 356.811L405.763 357.025L403.061 357.265L400.359 357.534L397.66 357.831L394.963 358.155L392.268 358.506L389.575 358.885L386.885 359.292L384.198 359.725L381.515 360.187L378.835 360.676L376.159 361.193L373.488 361.737L370.821 362.308L368.158 362.907L365.501 363.533L362.849 364.186L360.202 364.867L357.562 365.575L354.927 366.311L352.299 367.073L349.678 367.863L347.064 368.679L344.456 369.523L341.856 370.394L339.265 371.292L336.68 372.216L334.105 373.167L331.538 374.145L328.98 375.15L326.43 376.182L323.891 377.24L321.361 378.323L318.841 379.434L316.331 380.571L313.832 381.734L311.343 382.922L308.865 384.137L306.399 385.379L303.944 386.645L301.501 387.938L299.07 389.255L296.651 390.599L294.245 391.968L291.852 393.362L289.471 394.781L287.104 396.226L284.751 397.695L282.411 399.189L280.086 400.708L277.775 402.251L275.478 403.818L273.197 405.411L270.93 407.027L268.678 408.667L266.443 410.331L264.223 412.019L262.02 413.73L259.832 415.465L257.661 417.223L255.507 419.004L253.37 420.808L251.25 422.635L249.148 424.484L247.063 426.357L244.997 428.251L242.948 430.167L240.918 432.106L238.907 434.066L236.915 436.048L234.941 438.052L232.987 440.076L231.052 442.122L229.137 444.189L227.243 446.276L225.368 448.384L223.514 450.512L221.68 452.661L219.867 454.829L218.075 457.017L216.304 459.225L214.555 461.452L212.827 463.698L211.121 465.963L209.437 468.247L207.776 470.549L206.137 472.869L204.52 475.208L202.926 477.565L201.356 479.939L199.807 482.331L198.283 484.74L196.782 487.165L195.305 489.607L193.852 492.066L192.422 494.541L191.017 497.033L189.636 499.54L188.28 502.062L186.948 504.6L185.641 507.153L184.36 509.721L183.103 512.303L181.872 514.901L180.666 517.511L179.486 520.136L178.332 522.774L177.203 525.426L176.101 528.092L175.025 530.769L173.975 533.459L172.951 536.161L171.955 538.876L170.984 541.603L170.041 544.34L169.125 547.09L168.236 549.85L167.374 552.621L166.539 555.402L165.732 558.194L164.952 560.995L164.2 563.807L163.476 566.627L162.78 569.457L162.111 572.295L161.471 575.142L160.859 577.997L160.275 580.861L159.719 583.731L159.192 586.609L158.693 589.496L158.223 592.388L157.782 595.286L157.369 598.191L156.985 601.102L156.63 604.02L156.304 606.942L156.006 609.869L155.738 612.801L155.499 615.737L155.289 618.678L155.109 621.623L154.958 624.572L154.836 627.524L154.743 630.478L154.68 633.436L154.646 636.397L154.641 639.358L154.667 642.323L154.721 645.288L154.806 648.255L154.919 651.224L155.063 654.193L155.236 657.162L155.438 660.131L155.67 663.099L155.932 666.068L156.223 669.036L156.545 672.002L156.895 674.967L157.275 677.93L157.685 680.892L158.125 683.851L158.594 686.807L159.093 689.76L159.621 692.711L160.179 695.658L160.766 698.6L161.383 701.539L162.029 704.474L162.705 707.403L163.41 710.328L164.144 713.246L164.908 716.16L165.701 719.067L166.523 721.969L167.374 724.864L168.254 727.751L169.163 730.632L170.101 733.505L171.069 736.371L172.065 739.229L173.089 742.078L174.143 744.919L175.224 747.75L176.335 750.573L177.474 753.386L178.641 756.189L179.836 758.982L181.06 761.765L182.312 764.537L183.591 767.297L184.899 770.048L186.234 772.786L187.597 775.512L188.987 778.226L190.405 780.929L191.851 783.618L193.323 786.293L194.823 788.957L196.349 791.606L197.902 794.241L199.482 796.863L201.089 799.47L202.722 802.062L204.381 804.639L206.066 807.202L207.778 809.748L209.515 812.279L211.278 814.794L213.066 817.293L214.88 819.774L216.72 822.24L218.584 824.688L220.473 827.118L222.387 829.531L224.325 831.926L226.288 834.304L228.276 836.662L230.286 839.002L232.321 841.323L234.38 843.624L236.462 845.907L238.568 848.169L240.697 850.412L242.848 852.634L245.023 854.836L247.22 857.018L249.44 859.178L251.681 861.318L253.945 863.436L256.23 865.532L258.536 867.606L260.865 869.659L263.214 871.689L265.584 873.696L267.975 875.681L270.386 877.642L272.817 879.581L275.269 881.496L277.74 883.388L280.231 885.256L282.741 887.099L285.27 888.919L287.818 890.713L290.385 892.483L292.97 894.228L295.573 895.949L298.194 897.643L300.832 899.312L303.488 900.955L306.162 902.573L308.852 904.165L311.559 905.731L314.281 907.269L317.02 908.781L319.775 910.266L322.546 911.725L325.332 913.157L328.133 914.561L330.948 915.937L333.779 917.286L336.623 918.607L339.481 919.9L342.353 921.165L345.239 922.401L348.138 923.609L351.049 924.789L353.973 925.939L356.91 927.061L359.858 928.154L362.818 929.217L365.79 930.252L368.772 931.257L371.766 932.232L374.77 933.177L377.784 934.093L380.809 934.979L383.842 935.834L386.886 936.66L389.938 937.455L392.999 938.22L396.069 938.954L399.147 939.658L402.233 940.331L405.326 940.973L408.427 941.584L411.534 942.164L414.649 942.713L417.769 943.231L420.896 943.717L424.028 944.173L427.166 944.597L430.309 944.989L433.456 945.35L436.608 945.679L439.765 945.976L442.925 946.242L446.088 946.475L449.255 946.677L452.425 946.847L455.597 946.985L458.772 947.092L461.948 947.165L465.127 947.208L468.306 947.217L471.486 947.195L474.667 947.14L477.849 947.053L481.03 946.934L484.212 946.783L487.391 946.599L490.571 946.383L493.75 946.135L496.927 945.855L500.101 945.542L503.273 945.197L506.444 944.819L509.611 944.409L512.774 943.967L515.935 943.493L519.091 942.986L522.243 942.447L525.391 941.877L528.535 941.273L531.671 940.638L534.804 939.97L537.931 939.271L541.052 938.539L544.166 937.776L547.271 936.981L550.373 936.153L553.465 935.293L556.55 934.402L559.627 933.48L562.696 932.525L565.756 931.539L568.807 930.521L571.848 929.472L574.88 928.392L577.902 927.28L580.915 926.137L583.916 924.963L586.906 923.758L589.885 922.521L592.853 921.254L595.808 919.957L598.752 918.628L601.683 917.269L604.602 915.88L607.508 914.46L610.4 913.01L613.278 911.53L616.142 910.02L618.992 908.48L621.828 906.911L624.649 905.311L627.455 903.682L630.244 902.025L633.019 900.337L635.776 898.621L638.518 896.877L641.244 895.102L643.952 893.3L646.643 891.469L649.316 889.61L651.972 887.723L654.609 885.808L657.229 883.865L659.83 881.894L662.411 879.897L664.973 877.87L667.516 875.818L670.04 873.739L672.543 871.633L675.025 869.501L677.487 867.343L679.929 865.158L682.349 862.946L684.747 860.71L687.124 858.448L689.48 856.16L691.813 853.848L694.123 851.511L696.412 849.148L698.677 846.762L700.919 844.351L703.137 841.916L705.332 839.457L707.503 836.975L709.649 834.469L711.772 831.94L713.87 829.388L715.942 826.814L717.99 824.217L720.012 821.599L722.009 818.957L723.98 816.295L725.926 813.611L727.844 810.906L729.736 808.179L731.602 805.433L733.441 802.666L735.253 799.878L737.037 797.071L738.794 794.244L740.524 791.399L742.225 788.533L743.899 785.649L745.544 782.746L747.16 779.825L748.748 776.886L750.307 773.931L751.837 770.956L753.338 767.964L754.809 764.957L756.251 761.932L757.663 758.891L759.045 755.835L760.397 752.763L761.719 749.675L763.01 746.571L764.272 743.454L765.502 740.322L766.701 737.175L767.87 734.015L769.007 730.842L770.113 727.655L771.187 724.454L772.23 721.242L773.241 718.017L774.221 714.78L775.168 711.532L776.083 708.272L776.966 705.001L777.817 701.718L778.635 698.427L779.421 695.124L780.174 691.812L780.895 688.49L781.582 685.16L782.237 681.821L782.858 678.473L783.446 675.117L784.001 671.753L784.523 668.381L785.011 665.003L785.466 661.618L785.887 658.226L786.275 654.829L786.628 651.425L786.948 648.016L787.235 644.603L787.487 641.183L787.706 637.76L787.89 634.333L788.041 630.901L788.157 627.467L788.239 624.029L788.287 620.589L788.301 617.147L788.28 613.702L788.225 610.255L788.137 606.807L788.013 603.359L787.856 599.91L787.664 596.46L787.437 593.011L787.177 589.562L786.882 586.113L786.552 582.666L786.188 579.22L785.79 575.776L785.358 572.334L784.891 568.895L784.389 565.459L783.854 562.024L783.285 558.595L782.68 555.17L782.042 551.748L781.37 548.33L780.663 544.918L779.922 541.512L779.148 538.11L778.339 534.715L777.497 531.326L776.62 527.944L775.71 524.568L774.766 521.201L773.788 517.841L772.777 514.489L771.731 511.145L770.653 507.81L769.541 504.485L768.396 501.168L767.217 497.861L766.005 494.565L764.761 491.279L763.483 488.004L762.172 484.739L760.829 481.487L759.453 478.246L758.044 475.017L756.603 471.801L755.13 468.598L753.625 465.408L752.087 462.232L750.518 459.068L748.916 455.92L747.283 452.785L745.618 449.666L743.923 446.562L742.196 443.473L740.437 440.4L738.648 437.344L736.828 434.303L735.138 431.544L600.927 207.898L544.914 241.512Z" fill="#6792E4"/>
<path d="M524.868 150.342L663.794 173.426L479.882 283.793L524.868 150.342Z" fill="#6792E4"/>
</g>
<defs>
<clipPath id="clip0_118_5">
<rect width="1854.9" height="701.473" fill="white" transform="translate(0 464.466) rotate(-30.9683)"/>
</clipPath>
</defs>
</svg>
